<svg width="71" height="81" fill="none" xmlns="http://www.w3.org/2000/svg"><path d="M35.14 2.528c.504 0 .944.072 1.32.216.376.144.744.364 1.104.66l-.804.936c-.488-.392-1-.588-1.536-.588-.616 0-1.112.248-1.488.744-.368.496-.552 1.276-.552 2.34 0 1.04.184 1.812.552 2.316.368.504.864.756 1.488.756.328 0 .62-.056.876-.168.256-.12.528-.288.816-.504l.744.936c-.28.288-.636.528-1.068.72-.424.192-.9.288-1.428.288-.72 0-1.356-.168-1.908-.504-.552-.336-.98-.828-1.284-1.476-.304-.656-.456-1.444-.456-2.364 0-.904.156-1.68.468-2.328.32-.648.752-1.14 1.296-1.476a3.506 3.506 0 011.86-.504zm.832 67c1.104 0 1.964.376 2.58 1.128.624.752.936 1.816.936 3.192 0 .904-.14 1.68-.42 2.328-.28.648-.684 1.144-1.212 1.488-.528.344-1.156.516-1.884.516-1.024 0-1.836-.332-2.436-.996-.592-.672-.932-1.62-1.02-2.844h-.96V78h-1.584v-8.292h1.584v3.36h.996c.136-1.136.496-2.008 1.08-2.616.592-.616 1.372-.924 2.34-.924zm0 7.44c.6 0 1.056-.248 1.368-.744.312-.496.468-1.288.468-2.376 0-1.08-.156-1.868-.468-2.364-.304-.496-.76-.744-1.368-.744-.6 0-1.056.252-1.368.756-.312.504-.468 1.304-.468 2.4 0 2.048.612 3.072 1.836 3.072zm32.068-37.36c.568.104 1.024.308 1.368.612.352.304.528.768.528 1.392 0 .864-.304 1.48-.912 1.848-.608.36-1.46.54-2.556.54h-2.496v-8.292h2.172c2.288 0 3.432.704 3.432 2.112 0 .488-.148.888-.444 1.2-.296.304-.66.5-1.092.588zm-2.484-2.736v2.244h.972c.44 0 .788-.096 1.044-.288.256-.2.384-.492.384-.876 0-.4-.136-.68-.408-.84-.264-.16-.68-.24-1.248-.24h-.744zm.924 5.94c.584 0 1.028-.088 1.332-.264.312-.176.468-.508.468-.996 0-.472-.148-.812-.444-1.02-.288-.208-.684-.312-1.188-.312h-1.092v2.592h.924zM2.808 44.18c-1.152 0-2.076-.384-2.772-1.152l.888-.852c.256.256.528.448.816.576.288.128.612.192.972.192.496 0 .88-.12 1.152-.36.28-.24.42-.576.42-1.008 0-.432-.14-.764-.42-.996-.272-.24-.68-.36-1.224-.36h-.828l.192-1.188h.66c.432 0 .772-.104 1.02-.312.248-.216.372-.508.372-.876 0-.328-.1-.596-.3-.804-.2-.208-.508-.312-.924-.312-.6 0-1.196.24-1.788.72l-.768-.852a3.916 3.916 0 012.736-1.068c.568 0 1.052.096 1.452.288.408.184.716.44.924.768.208.32.312.684.312 1.092 0 .496-.152.908-.456 1.236-.304.328-.732.552-1.284.672.6.064 1.084.272 1.452.624.368.344.552.82.552 1.428 0 .504-.136.948-.408 1.332-.264.384-.636.684-1.116.9-.472.208-1.016.312-1.632.312z" fill="#888784"/><g opacity=".3" clip-path="url(#clip0)"><path d="M54.245 40.107l-1.042-.27c-.222-4.798-2.207-9.278-5.648-12.698a19.316 19.316 0 00-9.679-5.219.655.655 0 10-.272 1.282 17.997 17.997 0 019.019 4.864c3.109 3.09 4.942 7.109 5.239 11.426l-2.38-.613a15.565 15.565 0 00-2.432-6.663.662.662 0 00-.912-.19.653.653 0 00-.192.906 14.26 14.26 0 012.156 5.591l-5.826-1.502 3.395-7.137a.652.652 0 00-.13-.743.662.662 0 00-.748-.129l-7.18 3.377-1.512-5.793a14.459 14.459 0 015.555 2.097.66.66 0 00.91-.196.653.653 0 00-.197-.906 15.793 15.793 0 00-6.626-2.367l-1.235-4.733a.659.659 0 00-1.276 0l-1.236 4.733a15.705 15.705 0 00-8.701 3.952l-.35-.164a.662.662 0 00-.747.13.652.652 0 00-.13.743l.165.346a15.53 15.53 0 00-3.976 8.648l-2.371.61a17.8 17.8 0 015.23-11.423 18.004 18.004 0 018.915-4.842.655.655 0 10-.28-1.28 19.322 19.322 0 00-9.567 5.196c-3.44 3.419-5.426 7.899-5.648 12.698l-1.042.268a.656.656 0 00-.494.635c0 .298.203.559.494.634l1.042.269c.222 4.798 2.207 9.279 5.648 12.698a19.27 19.27 0 0012.777 5.612l.27 1.037a.66.66 0 001.277 0l.27-1.037a19.27 19.27 0 0012.777-5.612c3.44-3.42 5.426-7.9 5.648-12.698l1.042-.27a.656.656 0 000-1.268zM43.691 50.502l-5.742-2.698.228-.872.395-1.516h.001L43.69 50.5l.001.001zM30.44 45.076l3.43-3.409v16.55l-3.43-13.141zM24.047 50.5l2.715-5.706 1.203.31 1.2.31-5.116 5.086h-.002zm5.431-15.629l-.311 1.194h-.001l-5.117-5.086 5.741 2.697-.312 1.195zm-4.015 9.588l-2.621 5.51a14.217 14.217 0 01-3.207-7.012l5.828 1.502zm4.663 4.632l1.512 5.795a14.387 14.387 0 01-7.056-3.187l5.544-2.608zm7.486.003l5.544 2.605a14.385 14.385 0 01-7.055 3.187l1.511-5.792zm4.66-4.634l5.832-1.503a14.217 14.217 0 01-3.207 7.013l-2.624-5.51zm-4.04-.312l-3.43-3.408h16.652l-13.223 3.408zm2.745-7.463l-1.636-.421-.767-.198v-.001l5.117-5.086-2.714 5.706zm-3.678-.28l-3.43 3.408v-16.55l3.43 13.142zm-5.66-9.81l-1.512 5.79-5.533-2.6a14.383 14.383 0 017.044-3.19zm-8.791 4.925l2.618 5.5-5.83 1.502a14.22 14.22 0 013.212-7.002zm6.66 5.811l3.43 3.409H16.284l13.223-3.409zm-8.392 16.083a17.8 17.8 0 01-5.23-11.423l2.37.61a15.59 15.59 0 003.977 8.648l-.165.347a.652.652 0 00.13.743.661.661 0 00.748.13l.349-.165a15.774 15.774 0 008.701 3.952l.615 2.356a18.01 18.01 0 01-11.495-5.198zm25.507 0a18.01 18.01 0 01-11.495 5.198l.615-2.356a15.775 15.775 0 008.701-3.952l.35.164a.661.661 0 00.747-.129.652.652 0 00.13-.743l-.165-.347a15.59 15.59 0 003.976-8.647l2.38-.614c-.297 4.318-2.13 8.337-5.239 11.426z" fill="#000"/></g><defs><clipPath id="clip0"><path fill="#fff" transform="translate(13 20)" d="M0 0h41.739v41.481H0z"/></clipPath></defs></svg>