<svg width="18" height="18" fill="none" xmlns="http://www.w3.org/2000/svg"><mask id="a" maskUnits="userSpaceOnUse" x="1" y="1" width="16" height="16"><path fill-rule="evenodd" clip-rule="evenodd" d="M8.25 13.5h1.5V12h-1.5v1.5zM9 1.5C4.86 1.5 1.5 4.86 1.5 9c0 4.14 3.36 7.5 7.5 7.5 4.14 0 7.5-3.36 7.5-7.5 0-4.14-3.36-7.5-7.5-7.5zM9 15c-3.308 0-6-2.693-6-6 0-3.308 2.692-6 6-6 3.307 0 6 2.692 6 6 0 3.307-2.693 6-6 6zM9 4.5a3 3 0 00-3 3h1.5C7.5 6.675 8.175 6 9 6s1.5.675 1.5 1.5c0 1.5-2.25 1.313-2.25 3.75h1.5C9.75 9.562 12 9.375 12 7.5a3 3 0 00-3-3z" fill="#fff"/></mask><g mask="url(#a)"><path fill-rule="evenodd" clip-rule="evenodd" d="M-9.75-9.75h37.5v37.5h-37.5v-37.5z" fill="#DAD2D2"/></g></svg>