<svg width="190" height="240" fill="none" xmlns="http://www.w3.org/2000/svg"><g clip-path="url(#clip0)"><path d="M65.778 193.935H22.61v10.821h43.168v-10.821z" fill="#fff"/><path d="M65.612 194.101v10.503H22.767v-10.503h42.845zm.323-.323H22.439v11.139h43.486v-11.148l.01.009z" fill="#D4463D"/><path d="M65.778 198.195H22.61v2.301h43.168v-2.301z" fill="#fff"/><path d="M65.612 198.37v1.979H22.767v-1.979h42.845zm.323-.322H22.439v2.623h43.486v-2.623h.01z" fill="#D4463D"/><path d="M173.499 193.935H124.74v10.821h48.759v-10.821z" fill="#fff"/><path d="M173.337 194.101v10.503h-48.45v-10.503h48.45zm.323-.323h-49.096v11.139h49.082v-11.148l.014.009z" fill="#D4463D"/><path d="M173.499 198.195H124.74v2.301h48.759v-2.301z" fill="#fff"/><path d="M173.337 198.37v1.979h-48.45v-1.979h48.45zm.323-.322h-49.096v2.623h49.082v-2.623h.014z" fill="#D4463D"/><path d="M124.578 199.348l13.552-13.336M96.838 80.37L81.824 96.62m21.726-16.25l14.858 16.249m10.26-63.909l-11.509 14.518m-3.392-28.546L96.292.645" stroke="#585852" stroke-width="2.717" stroke-miterlimit="10" stroke-linecap="round"/><path d="M.27 204.922h22.178v-11.144H.271v11.144zm173.39 0h16.102v-11.144H173.66v11.144zm-107.725 0h58.643v-11.144H65.935v11.144zm63.954-154.995h-2.447V81.11h2.447V49.927z" fill="#D4463D"/><path d="M101.417 80.788h-2.446v116.989h2.446V80.787zm28.472-62.106h-2.447v13.806h2.447V18.682zM61.992 36.23h-2.446v45.364h2.446V36.23zm10.888 0h-2.447v22h2.446v-22z" fill="#D4463D"/><path d="M72.884 19.93h-4.45v17.273h4.45V19.93zm2.565 61.664v-2.443H59.731v2.443H75.45zM72.884 58.23v-2.444H59.731v2.443h13.153zm114.081 23.364v-2.443h-61.299v2.443h61.299z" fill="#D4463D"/><path d="M186.965 80.375v-4.526h-58.297v4.526h58.297zM103.55 81.59v-2.444h-6.712v2.443h6.712zm84.588-11.761v-2.444h-40.712v2.444h40.712z" fill="#D4463D"/><path d="M147.421 77.96h2.446v-9.355h-2.446v9.355zM89.647 20.926v-4.488H68.429v4.488h21.218zm100.353 0V16.44h-76.233v4.487H190zM72.466 37.199V32.71H.83v4.488h71.635z" fill="#D4463D"/><path d="M0 204.917h5.068V32.711H0v172.206zm184.932.005H190V16.657h-5.068v188.265z" fill="#D4463D"/><path d="M154.788 239.995h-1.249v-2.467h1.235a31.468 31.468 0 0022.205-9.2 31.39 31.39 0 009.212-22.177v-1.234h2.47v1.234a33.86 33.86 0 01-9.932 23.915 33.943 33.943 0 01-23.941 9.929zM86.92 206.151v-1.234h2.47v1.234a31.39 31.39 0 009.212 22.177 31.469 31.469 0 0022.205 9.2h1.235v2.467h-1.235a33.945 33.945 0 01-23.95-9.924 33.86 33.86 0 01-9.937-23.92z" fill="#D4463D"/><path d="M153.553 237.528h-31.511v2.467h31.511v-2.467z" fill="#D4463D"/><path d="M23.921 122.735s0-2.073-2.076-2.073H14.53s-2.075 0-2.075 2.073v7.529s0 2.073 2.075 2.073h7.315s2.076 0 2.076-2.073v-7.529z" fill="#fff" stroke="#626366" stroke-width=".679"/><path d="M24.771 119.846a53.64 53.64 0 00-6.536-.641 35.666 35.666 0 00-6.536.641v1.897a28.123 28.123 0 016.536-.706c2.195.051 4.381.288 6.536.706v-1.897zM12.55 179.342s0 2.073 2.075 2.073h7.339s2.076 0 2.076-2.073v-7.539s0-2.073-2.076-2.073h-7.315s-2.076 0-2.076 2.073v7.529l-.024.01z" fill="#fff" stroke="#626366" stroke-width=".679"/><path d="M11.7 182.24c2.163.347 4.345.561 6.535.641a35.58 35.58 0 006.536-.641v-1.897c-2.143.49-4.337.728-6.536.707a39.2 39.2 0 01-6.536-.707v1.897zm25.402-34.85s2.076 0 2.076-2.073v-7.306s0-2.073-2.076-2.073h-7.538s-2.076 0-2.076 2.073v7.306s0 2.073 2.076 2.073h7.538z" fill="#fff" stroke="#626366" stroke-width=".679"/><path d="M40.014 148.239c.347-2.16.561-4.34.641-6.527a35.499 35.499 0 00-.64-6.528h-1.9c.49 2.14.728 4.331.707 6.528a38.957 38.957 0 01-.708 6.527h1.9zm-2.912 18.82s2.076 0 2.076-2.073v-7.306s0-2.073-2.076-2.073h-7.538s-2.076 0-2.076 2.073v7.306s0 2.073 2.076 2.073h7.538z" fill="#fff" stroke="#626366" stroke-width=".679"/><path d="M40.014 167.899c.34-2.163.545-4.345.617-6.533a35.507 35.507 0 00-.64-6.528h-1.9a28.06 28.06 0 01.707 6.528 38.957 38.957 0 01-.708 6.528h1.9l.024.005zm-10.688 5.845s2.076 0 2.076-2.074v-41.615s0-2.073-2.076-2.073H7.145s-2.076 0-2.076 2.073v41.611s0 2.073 2.076 2.073h22.183v.005z" fill="#fff" stroke="#626366" stroke-width=".679"/><path d="M21.427 37.36H5.23v63.675h16.197V37.36z" fill="#fff"/><path d="M21.266 37.521v63.353H5.39V37.521h15.875zm.323-.322H5.069v63.998h16.52V37.199z" fill="#626366"/><path d="M50.697 37.36H5.23v16.177h45.467V37.36z" fill="#fff"/><path d="M50.535 37.521v15.855H5.41V37.52h45.125zm.323-.322H5.068v16.476h45.79V37.199z" fill="#626366"/><path d="M21.427 74.369H5.23v16.177h16.197V74.37z" fill="#fff"/><path d="M21.266 74.55v15.854H5.39V74.549h15.875zm.323-.323H5.069v16.5h16.52v-16.52.02z" fill="#626366"/><path d="M17.152 81.793a2.982 2.982 0 01-2.751-1.836 2.97 2.97 0 01.645-3.241 2.98 2.98 0 015.085 2.103 2.978 2.978 0 01-2.979 2.974z" fill="#fff"/><path d="M17.152 81.793a2.982 2.982 0 01-2.751-1.836 2.97 2.97 0 01.645-3.241 2.98 2.98 0 015.085 2.103 2.978 2.978 0 01-2.979 2.974m2.831-5.802l-5.667 5.655m0-5.655l5.667 5.655" stroke="#626366" stroke-width=".679" stroke-linecap="round"/><path d="M9.51 81.793a2.981 2.981 0 01-2.752-1.836 2.971 2.971 0 012.17-4.056 2.98 2.98 0 013.56 2.918 2.978 2.978 0 01-2.978 2.974z" fill="#fff"/><path d="M9.51 81.793a2.981 2.981 0 01-2.752-1.836 2.971 2.971 0 012.17-4.056 2.98 2.98 0 013.56 2.918 2.978 2.978 0 01-2.978 2.974m2.83-5.802l-5.666 5.655m0-5.655l5.666 5.655" stroke="#626366" stroke-width=".679" stroke-linecap="round"/><path d="M17.152 89.076a2.982 2.982 0 01-2.751-1.837 2.97 2.97 0 01.645-3.241 2.98 2.98 0 015.085 2.103 2.978 2.978 0 01-2.979 2.975z" fill="#fff"/><path d="M17.152 89.076a2.982 2.982 0 01-2.751-1.837 2.97 2.97 0 01.645-3.241 2.98 2.98 0 015.085 2.103 2.978 2.978 0 01-2.979 2.975m2.831-5.803l-5.667 5.655m0-5.655l5.667 5.655" stroke="#626366" stroke-width=".679" stroke-linecap="round"/><path d="M9.51 89.076a2.981 2.981 0 01-2.752-1.837 2.971 2.971 0 012.17-4.055 2.982 2.982 0 013.058 1.264 2.972 2.972 0 01-2.476 4.628z" fill="#fff"/><path d="M9.51 89.076a2.981 2.981 0 01-2.752-1.837 2.971 2.971 0 012.17-4.055 2.982 2.982 0 013.058 1.264 2.972 2.972 0 01-2.476 4.628m2.83-5.803l-5.666 5.655m0-5.655l5.666 5.655" stroke="#626366" stroke-width=".679" stroke-linecap="round"/><path d="M59.384 37.36H43.187v16.177h16.197V37.36z" fill="#fff"/><path d="M59.223 37.521v15.855H43.34V37.52h15.885zm.314-.322h-16.52v16.476h16.52V37.199z" fill="#626366"/><path d="M54.117 42.621l-5.662 5.655m0-5.655l5.662 5.655m-2.831 1.162v-7.98m-3.995 3.991h7.99" stroke="#626366" stroke-width=".679" stroke-linecap="round"/><path d="M21.427 37.36H5.23v16.177h16.197V37.36z" fill="#fff"/><path d="M21.266 37.521v15.855H5.39V37.52h15.875zm.323-.322H5.069v16.476h16.52V37.199z" fill="#626366"/><path d="M10.887 51.9c-.076 0-1.848-.028-1.848-1.845v-5.157c0-.076.029-1.845 1.848-1.845h7.434c.076 0 1.848.028 1.848 1.845v5.162c0 .076-.029 1.845-1.848 1.845h-7.434V51.9z" fill="#fff"/><path d="M18.32 43.214a1.634 1.634 0 011.687 1.684v5.157a1.616 1.616 0 01-1.686 1.684h-7.434a1.621 1.621 0 01-1.686-1.684v-5.157a1.63 1.63 0 011.686-1.684h7.434zm0-.322h-7.433c-2.01 0-2.01 2.006-2.01 2.006v5.157c0 2.007 2.01 2.007 2.01 2.007h7.434c2.01 0 2.01-2.007 2.01-2.007v-5.157c0-2.006-2.01-2.006-2.01-2.006z" fill="#626366"/><path d="M12.146 44.965a.606.606 0 01-.72.606.61.61 0 01-.45-.827.607.607 0 01.562-.377.603.603 0 01.608.598z" fill="#fff"/><path d="M12.146 44.965a.606.606 0 01-.72.606.61.61 0 01-.45-.827.607.607 0 01.562-.377.603.603 0 01.608.598" stroke="#626366" stroke-width=".679"/><path d="M98.971 129.514H94.05v64.259h4.921v-64.259zm-4.921 59.344v4.915H62.31v-4.915h31.74z" fill="#fff" stroke="#626366" stroke-width=".679" stroke-linejoin="round"/><path d="M66.248 175.119H62.31v13.744h3.938v-13.744zm27.792-45.605H80.28v3.815h13.76v-3.815z" fill="#fff" stroke="#626366" stroke-width=".679" stroke-linejoin="round"/><path d="M80.151 134.738a1.38 1.38 0 011.425-1.424H92.65a1.381 1.381 0 011.425 1.424v11.058a1.38 1.38 0 01-1.425 1.423H81.576a1.372 1.372 0 01-1.02-.403 1.39 1.39 0 01-.405-1.02v-11.058z" fill="#fff" stroke="#626366" stroke-width=".679" stroke-linejoin="round"/><path d="M80.151 148.624a1.38 1.38 0 011.425-1.424H92.65a1.381 1.381 0 011.425 1.424v11.058a1.38 1.38 0 01-1.425 1.423H81.576a1.372 1.372 0 01-1.02-.403 1.39 1.39 0 01-.405-1.02v-11.058z" fill="#fff" stroke="#626366" stroke-width=".679" stroke-linejoin="round"/><path d="M80.151 162.505a1.382 1.382 0 011.425-1.423H92.65a1.389 1.389 0 011.02.403 1.39 1.39 0 01.405 1.02v11.059a1.376 1.376 0 01-.873 1.326c-.176.07-.363.103-.552.097H81.576a1.38 1.38 0 01-1.425-1.423v-11.059z" fill="#fff" stroke="#626366" stroke-width=".679" stroke-linejoin="round"/><path d="M92.64 174.977a1.39 1.39 0 011.02.404 1.37 1.37 0 01.404 1.019v11.059a1.378 1.378 0 01-.873 1.327 1.39 1.39 0 01-.552.096H81.567a1.39 1.39 0 01-1.02-.404 1.37 1.37 0 01-.405-1.019v-11.073a1.385 1.385 0 01.404-1.019 1.383 1.383 0 011.02-.404H92.64v.014z" fill="#fff" stroke="#626366" stroke-width=".679" stroke-linejoin="round"/><path d="M78.736 174.977a1.39 1.39 0 011.02.404 1.37 1.37 0 01.405 1.019v11.059a1.378 1.378 0 01-.873 1.327 1.39 1.39 0 01-.552.096H67.664a1.39 1.39 0 01-1.021-.404 1.37 1.37 0 01-.404-1.019v-11.073a1.385 1.385 0 01.404-1.019 1.384 1.384 0 011.02-.404h11.073v.014z" fill="#fff" stroke="#626366" stroke-width=".679" stroke-linejoin="round"/><path d="M184.77 97.198h-56.444v46.459h56.444v-46.46z" fill="#fff"/><path d="M184.609 97.359v46.136h-56.121V97.359h56.121zm.323-.323h-56.763v46.777h56.763V97.036z" fill="#626366"/><path d="M170.359 124.775s0-2.405 2.408-2.405h7.453s2.408 0 2.408 2.405v11.889s0 2.405-2.408 2.405h-7.453s-2.408 0-2.408-2.405v-11.889zm0-20.589s0-2.406 2.408-2.406h7.453s2.408 0 2.408 2.406v11.888s0 2.406-2.408 2.406h-7.453s-2.408 0-2.408-2.406v-11.888z" fill="#fff" stroke="#626366" stroke-width=".679" stroke-linejoin="round"/><path d="M129.984 141.792V99.081l31.934-.02 11.305 11.562-.028 31.145-43.211.024z" fill="#fff" stroke="#626366" stroke-width=".679" stroke-linejoin="round"/><path d="M161.871 99.114l11.319 11.424-10.673-.702-.646-10.722z" fill="#fff" stroke="#626366" stroke-width=".679" stroke-linejoin="round"/><path d="M184.77 145.806h-11.29v11.276h11.29v-11.276z" fill="#fff"/><path d="M184.609 145.962v10.954h-10.968v-10.954h10.968zm.323-.322h-11.614v11.599h11.614V145.64z" fill="#626366"/><path d="M184.77 83.772h-11.29v11.276h11.29V83.772z" fill="#fff"/><path d="M184.609 83.928v10.954h-10.968V83.928h10.968zm.323-.322h-11.614v11.599h11.614v-11.6z" fill="#626366"/><path d="M116.399 141.403h-14.82v52.209h14.82v-52.209z" fill="#fff"/><path d="M116.242 141.56v51.886h-14.478V141.56h14.497-.019zm.342-.323h-15.143v52.532h15.143v-52.532z" fill="#626366"/><path d="M113.477 173.611h-8.037v6.779h8.037v-6.779zm-6.996 3.392h6.887" stroke="#626366" stroke-width=".679" stroke-linecap="round" stroke-linejoin="round"/><path d="M105.336 179.029c.64 0 1.159-.907 1.159-2.026 0-1.119-.519-2.026-1.159-2.026s-1.159.907-1.159 2.026c0 1.119.519 2.026 1.159 2.026z" fill="#fff" stroke="#626366" stroke-width=".679" stroke-linecap="round" stroke-linejoin="round"/><path d="M106.291 176.993l2.641 1.006-3.506 1.898-.95-1.594c.394.03.787-.072 1.116-.29.293-.295.53-.64.699-1.02z" fill="#fff" stroke="#626366" stroke-width=".679" stroke-linecap="round" stroke-linejoin="round"/><path d="M106.277 177.022l2.641-1.006-3.506-1.898-.95 1.594c.394-.03.787.072 1.116.29.293.295.529.64.699 1.02z" fill="#fff" stroke="#626366" stroke-width=".679" stroke-linecap="round" stroke-linejoin="round"/><path d="M113.477 183.289h-8.037v6.779h8.037v-6.779zm-6.996 3.387h6.887" stroke="#626366" stroke-width=".679" stroke-linecap="round" stroke-linejoin="round"/><path d="M105.336 188.702c.64 0 1.159-.907 1.159-2.026 0-1.119-.519-2.026-1.159-2.026s-1.159.907-1.159 2.026c0 1.119.519 2.026 1.159 2.026z" fill="#fff" stroke="#626366" stroke-width=".679" stroke-linecap="round" stroke-linejoin="round"/><path d="M106.291 186.667l2.641 1.006-3.506 1.897-.95-1.594a1.77 1.77 0 001.116-.289c.293-.295.53-.641.699-1.02z" fill="#fff" stroke="#626366" stroke-width=".679" stroke-linecap="round" stroke-linejoin="round"/><path d="M106.277 186.681l2.641-1.006-3.506-1.897-.95 1.594a1.77 1.77 0 011.116.289c.293.295.529.641.699 1.02z" fill="#fff" stroke="#626366" stroke-width=".679" stroke-linecap="round" stroke-linejoin="round"/><path d="M106.989 165.593a1.045 1.045 0 01-.993-.7 1.053 1.053 0 01-.057-.424c-.066-1.167 1.15-1.143 1.463-1.049.822.247.641 1.087 1.026 1.087s.974.024.974.024" stroke="#626366" stroke-width=".679" stroke-linecap="round" stroke-linejoin="round"/><path d="M111.582 158.771c-1.358.237-2.432 2.69-2.432 5.693 0 3.003 1.074 5.475 2.432 5.693v-11.386zm-4.593-7.766a1.045 1.045 0 01-.993-.7 1.053 1.053 0 01-.057-.424c-.066-1.167 1.15-1.144 1.463-1.049.822.247.641 1.087 1.026 1.087s.974.023.974.023" stroke="#626366" stroke-width=".679" stroke-linecap="round" stroke-linejoin="round"/><path d="M111.582 144.183c-1.358.237-2.432 2.69-2.432 5.693 0 3.003 1.074 5.475 2.432 5.693v-11.386z" stroke="#626366" stroke-width=".679" stroke-linecap="round" stroke-linejoin="round"/><path d="M87.053 21.083H73.041v36.98h14.012v-36.98z" fill="#fff"/><path d="M86.897 21.244v36.658H73.202V21.244h13.695zm.322-.322H72.885v37.303H87.22V20.92z" fill="#626366"/><path d="M78.28 47.982a1.05 1.05 0 01-1.05-1.124c-.066-1.167 1.15-1.144 1.463-1.049.822.247.642 1.087 1.026 1.087.385 0 .974.023.974.023" stroke="#626366" stroke-width=".679" stroke-linecap="round" stroke-linejoin="round"/><path d="M82.873 41.15c-1.358.238-2.432 2.69-2.432 5.693 0 3.003 1.074 5.475 2.432 5.693V41.15zm-4.593-7.766a1.052 1.052 0 01-.993-.7 1.047 1.047 0 01-.057-.424c-.066-1.167 1.15-1.143 1.463-1.048.822.246.642 1.086 1.026 1.086.385 0 .974.024.974.024" stroke="#626366" stroke-width=".679" stroke-linecap="round" stroke-linejoin="round"/><path d="M82.873 26.562c-1.358.237-2.432 2.69-2.432 5.693 0 3.003 1.074 5.475 2.432 5.693V26.562z" stroke="#626366" stroke-width=".679" stroke-linecap="round" stroke-linejoin="round"/><path d="M156.166 48.717c-3.477 0-6.299 3.962-6.299 8.853s2.822 8.852 6.299 8.852c3.477 0 6.298-3.961 6.298-8.852s-2.821-8.853-6.298-8.853z" fill="#fff" stroke="#626366" stroke-width=".679"/><path d="M161.657 62.75h-10.982v1.405h10.982V62.75z" fill="#fff" stroke="#626366" stroke-width=".679" stroke-linecap="round" stroke-linejoin="round"/><path d="M162.464 63.747h-12.597v3.695h12.597v-3.695z" fill="#fff" stroke="#626366" stroke-width=".679" stroke-linecap="round" stroke-linejoin="round"/><path d="M156.166 64.923a.67.67 0 00-.487 1.138.674.674 0 00.731.15.67.67 0 00-.244-1.288z" fill="#fff"/><path d="M156.166 64.923a.67.67 0 00-.487 1.138.674.674 0 00.731.15.67.67 0 00-.244-1.288" stroke="#626366" stroke-width=".679" stroke-linecap="round" stroke-linejoin="round"/><path d="M184.799 21.083h-18.43v46.141h18.43V21.083z" fill="#fff"/><path d="M184.637 21.244v45.819H166.53V21.244h18.107zm.323-.322h-18.753v46.463h18.753V20.921z" fill="#626366"/><path d="M183.17 54.823c0-.138.023-.266.023-.413v-26.6s0-5.038-4.697-5.038h-5.824s-4.698 0-4.698 5.038v26.605s0 .157.024.403c0 .09-.024.176-.024.27 0 4.508 3.406 8.16 7.6 8.16 4.195 0 7.6-3.652 7.6-8.16 0-.09 0-.17-.023-.26" fill="#fff"/><path d="M183.17 54.823c0-.138.023-.266.023-.413v-26.6s0-5.038-4.697-5.038h-5.824s-4.698 0-4.698 5.038v26.605s0 .157.024.403c0 .09-.024.176-.024.27 0 4.508 3.406 8.16 7.6 8.16 4.195 0 7.6-3.652 7.6-8.16.019-.094-.004-.175-.004-.265z" stroke="#626366" stroke-width=".679"/><path d="M176.462 26.467a1.077 1.077 0 01-.681.986 1.086 1.086 0 01-1.465-.8 1.078 1.078 0 01.464-1.105c.177-.118.386-.181.599-.181a1.088 1.088 0 011.003.682c.054.133.081.275.08.418z" fill="#fff"/><path d="M176.462 26.467a1.077 1.077 0 01-.681.986 1.086 1.086 0 01-1.465-.8 1.078 1.078 0 01.464-1.105c.177-.118.386-.181.599-.181a1.088 1.088 0 011.003.682c.054.133.081.275.08.418" stroke="#626366" stroke-width=".679"/><path d="M166.264 21.083h-21.512V31.14h21.512V21.083z" fill="#fff"/><path d="M166.103 21.244v9.735h-21.19v-9.735h21.19zm.323-.322h-21.85v10.38h21.85V20.92z" fill="#626366"/><path d="M148.642 22.425h13.732v4.005a8.908 8.908 0 01-6.866 3.227 8.92 8.92 0 01-6.866-3.227v-4.005z" fill="#fff" stroke="#626366" stroke-width=".679" stroke-linecap="round" stroke-linejoin="round"/><path d="M155.506 26.264a1.106 1.106 0 100-2.212 1.106 1.106 0 000 2.212z" fill="#fff" stroke="#626366" stroke-width=".679" stroke-linecap="round" stroke-linejoin="round"/><path d="M143.502 58.604h-9.69v1.21h9.69v-1.21z" fill="#fff" stroke="#626366" stroke-width=".679" stroke-linejoin="round"/><path d="M146.571 59.833h-15.832v15.812h15.832V59.833z" fill="#fff"/><path d="M146.414 59.99v15.508h-15.509V59.989h15.509zm.323-.323h-16.15v16.13h16.15v-16.13z" fill="#626366"/><path d="M128.392 216.502c.508.3 1.084.463 1.672.475 1.311 0 1.72-.835 1.71-1.461 0-1.058-.95-1.509-1.952-1.509h-.57v-.764h.57c.741 0 1.686-.384 1.686-1.276 0-.602-.384-1.139-1.325-1.139a2.781 2.781 0 00-1.51.499l-.266-.745a3.59 3.59 0 011.976-.579c1.486 0 2.161.882 2.161 1.798a1.898 1.898 0 01-1.397 1.774 1.965 1.965 0 011.687 1.936c0 1.205-.95 2.263-2.755 2.263a3.836 3.836 0 01-1.962-.513l.275-.759zm5.8.57a.68.68 0 01.189-.518.693.693 0 01.509-.213.73.73 0 01.699.427.73.73 0 11-1.397.304zm6.831-6.078h-2.879l-.29 1.936c.203-.031.408-.047.613-.047a3.187 3.187 0 011.629.408 2.147 2.147 0 011.079 1.935c0 1.476-1.173 2.576-2.812 2.576a3.69 3.69 0 01-1.9-.474l.256-.778c.495.271 1.05.415 1.615.417a1.657 1.657 0 001.249-.432 1.658 1.658 0 00.542-1.204c0-.973-.66-1.67-2.171-1.67-.35.003-.699.03-1.045.08l.475-3.619h3.615v.858l.024.014zm1.358 4.768a2.15 2.15 0 011.496-2.021v-.033a1.871 1.871 0 01-1.197-1.693c0-1.196 1.012-2.007 2.337-2.007 1.463 0 2.195.915 2.195 1.855a1.898 1.898 0 01-1.245 1.765v.033c.95.37 1.52 1.034 1.52 1.95 0 1.309-1.125 2.191-2.565 2.191-1.586.019-2.541-.929-2.541-2.04zm4.066-.047c0-.916-.641-1.357-1.662-1.646-.884.256-1.359.835-1.359 1.556-.005.195.032.39.108.57a1.385 1.385 0 00.826.779c.185.065.381.09.577.074a1.374 1.374 0 001.048-.335 1.356 1.356 0 00.462-.998zm-2.812-3.772c0 .755.57 1.163 1.425 1.39a1.487 1.487 0 001.15-1.371 1.162 1.162 0 00-.081-.491 1.17 1.17 0 00-1.197-.737 1.192 1.192 0 00-.915.319 1.21 1.21 0 00-.382.89zm-13.266 13.066l-1.311.706-.219-.778 1.648-.882h.87v7.524h-.988v-6.57zm3.823 5.986a.68.68 0 01.422-.677.735.735 0 01.794.161.73.73 0 01-.518 1.247.692.692 0 01-.51-.211.682.682 0 01-.188-.52zm7.344-3.249c0 2.567-.95 3.98-2.627 3.98-1.477 0-2.475-1.38-2.499-3.876-.023-2.495 1.093-3.923 2.627-3.923 1.534 0 2.499 1.418 2.499 3.819zm-4.099.119c0 1.959.603 3.074 1.534 3.074 1.045 0 1.544-1.219 1.544-3.146 0-1.926-.475-3.074-1.535-3.074-.897 0-1.548 1.091-1.548 3.146h.005zm9.927-3.81v.674l-3.273 6.85h-1.059l3.278-6.67h-3.696v-.849h4.75v-.005z" fill="#231F20"/><path d="M126.184 220.658h23.17" stroke="#231F20" stroke-width="1.123" stroke-linecap="round" stroke-linejoin="round"/><path d="M30.039 73.78l-1.311.707-.2-.778 1.649-.882h.812v7.543h-.95v-6.59zm4.313 5.869c.276.016.553.004.827-.033a2.85 2.85 0 001.581-.731 3.32 3.32 0 00.998-2.007h-.034a2.217 2.217 0 01-1.776.811 2.186 2.186 0 01-2.233-2.31 2.583 2.583 0 011.57-2.472 2.593 2.593 0 011.01-.208c1.543 0 2.498 1.252 2.498 3.178a4.739 4.739 0 01-1.301 3.54 3.802 3.802 0 01-2.195 1.01c-.314.05-.632.07-.95.057v-.835h.005zm.37-4.341a1.45 1.45 0 001.454 1.603 1.693 1.693 0 001.487-.787c.066-.112.1-.24.095-.37 0-1.29-.475-2.273-1.544-2.273-.874-.004-1.492.76-1.492 1.827zm5.078 4.459a.688.688 0 01.699-.73.732.732 0 01.517 1.247.732.732 0 01-.517.214.684.684 0 01-.699-.73zm7.34-3.249c0 2.566-.95 3.98-2.628 3.98-1.477 0-2.474-1.38-2.498-3.876-.024-2.495 1.092-3.923 2.627-3.923 1.534 0 2.498 1.413 2.498 3.819zm-4.1.114c0 1.959.603 3.074 1.534 3.074 1.045 0 1.544-1.22 1.544-3.146s-.475-3.074-1.534-3.074c-.893 0-1.544 1.091-1.544 3.146zm4.95 1.821a2.151 2.151 0 011.5-2.02v-.034a1.87 1.87 0 01-1.197-1.694c0-1.195 1.012-2.006 2.337-2.006 1.463 0 2.195.915 2.195 1.855a1.895 1.895 0 01-1.245 1.764v.034c.95.37 1.525 1.034 1.525 1.95 0 1.309-1.126 2.191-2.57 2.191-1.596.005-2.546-.934-2.546-2.04zm4.065-.047c0-.916-.636-1.357-1.662-1.646-.884.256-1.359.835-1.359 1.556a1.393 1.393 0 001.51 1.423 1.369 1.369 0 001.511-1.333zm-2.812-3.772c0 .755.57 1.163 1.425 1.395a1.487 1.487 0 001.15-1.371 1.17 1.17 0 00-1.278-1.229 1.203 1.203 0 00-1.297 1.21v-.005zm89.804 88.976l-1.311.707-.2-.778 1.649-.882h.869v7.543h-.988v-6.59h-.019zm3.985 5.418c.507.3 1.083.463 1.672.474 1.311 0 1.719-.834 1.71-1.461 0-1.058-.95-1.508-1.952-1.508h-.57v-.764h.57c.745 0 1.686-.384 1.686-1.276 0-.603-.385-1.139-1.325-1.139a2.772 2.772 0 00-1.511.498l-.266-.745a3.597 3.597 0 011.976-.578c1.487 0 2.162.882 2.162 1.798a1.901 1.901 0 01-1.397 1.774 1.96 1.96 0 011.686 1.936c0 1.205-.95 2.262-2.755 2.262a3.848 3.848 0 01-1.962-.512l.276-.759zm5.8.569a.693.693 0 01.189-.517.68.68 0 01.509-.213.731.731 0 11-.278 1.409.693.693 0 01-.381-.399.668.668 0 01-.039-.28zm6.83-6.082h-2.883l-.29 1.936c.205-.031.411-.047.618-.047a3.191 3.191 0 011.624.408 2.143 2.143 0 011.083 1.935c0 1.476-1.173 2.576-2.812 2.576a3.693 3.693 0 01-1.9-.474l.257-.778c.495.271 1.05.415 1.615.417a1.655 1.655 0 001.249-.432 1.655 1.655 0 00.542-1.204c0-.973-.661-1.67-2.171-1.67-.35.003-.699.03-1.045.08l.475-3.619h3.614v.858l.024.014zm1.359 4.773a2.152 2.152 0 011.501-2.021v-.033a1.873 1.873 0 01-1.197-1.694c0-1.195 1.011-2.007 2.337-2.007 1.463 0 2.194.916 2.194 1.855a1.898 1.898 0 01-1.244 1.765v.033c.95.37 1.524 1.035 1.524 1.95 0 1.31-1.125 2.192-2.569 2.192-1.596 0-2.546-.939-2.546-2.04zm4.066-.047c0-.916-.637-1.357-1.663-1.647-.883.257-1.358.835-1.358 1.556a1.397 1.397 0 00.934 1.35c.185.065.381.09.576.074a1.38 1.38 0 001.049-.335 1.38 1.38 0 00.462-.998zm-2.812-3.772c0 .754.57 1.162 1.425 1.39a1.49 1.49 0 001.149-1.371 1.166 1.166 0 00-.782-1.167 1.177 1.177 0 00-.496-.062 1.205 1.205 0 00-1.186.728 1.196 1.196 0 00-.096.482h-.014zM97.907 67.433v-2.054h-3.51v-.674l3.367-4.815h1.102v4.696h1.055v.802h-1.055v2.045h-.96zm0-2.847v-2.519c0-.395.011-.79.033-1.186h-.033c-.233.441-.418.764-.627 1.115l-1.848 2.567h2.475v.023zm2.883 2.254a.686.686 0 01.698-.73.731.731 0 11-.277 1.408.678.678 0 01-.382-.399.698.698 0 01-.039-.28zm2.917-.119c.276.016.552.005.826-.033a2.852 2.852 0 001.582-.73 3.316 3.316 0 00.997-2.007h-.033a2.213 2.213 0 01-1.776.81 2.188 2.188 0 01-2.101-1.424 2.174 2.174 0 01-.132-.886 2.592 2.592 0 01.721-1.886 2.581 2.581 0 011.858-.794c1.544 0 2.499 1.252 2.499 3.178a4.732 4.732 0 01-1.302 3.54c-.6.568-1.371.923-2.194 1.01-.314.05-.632.07-.95.057v-.835h.005zm.37-4.34a1.446 1.446 0 00.368 1.125 1.454 1.454 0 001.086.478 1.691 1.691 0 001.486-.788c.067-.111.1-.24.095-.37 0-1.29-.475-2.272-1.543-2.272-.874-.005-1.492.759-1.492 1.826zm4.992 5.052v-.617l.803-.778c1.929-1.831 2.803-2.808 2.812-3.947a1.342 1.342 0 00-.902-1.41 1.352 1.352 0 00-.594-.066 2.58 2.58 0 00-1.606.641l-.323-.721a3.33 3.33 0 012.138-.764 2.125 2.125 0 012.313 2.192c0 1.395-1.012 2.519-2.603 4.051l-.603.555h3.391v.864h-4.826zm29.688-22.017V43.36h-3.51v-.673l3.368-4.816h1.101v4.688h1.055v.801h-1.055v2.055h-.959zm0-2.847v-2.52c0-.395.011-.79.033-1.185h-.033a23.4 23.4 0 01-.627 1.115l-1.848 2.566h2.475v.024zm2.879 2.244a.678.678 0 01.189-.518.678.678 0 01.509-.213.731.731 0 11-.278 1.41.684.684 0 01-.42-.68zm2.569-.569c.507.3 1.083.463 1.672.474 1.311 0 1.72-.835 1.71-1.461 0-1.058-.95-1.509-1.952-1.509h-.57v-.764h.57c.746 0 1.686-.384 1.686-1.276 0-.602-.384-1.138-1.325-1.138a2.775 2.775 0 00-1.51.498l-.267-.745a3.595 3.595 0 011.977-.579c1.486 0 2.161.883 2.161 1.798a1.896 1.896 0 01-1.397 1.774 1.97 1.97 0 011.687 1.936c0 1.205-.95 2.263-2.755 2.263a3.84 3.84 0 01-1.962-.512l.275-.76zm10.617-6.372v.674l-3.287 6.87h-1.06l3.278-6.67h-3.696v-.85h4.75l.015-.024z" fill="#231F20"/><path d="M58.292 128.404c3.49 0 6.9-1.033 9.801-2.969a17.623 17.623 0 006.498-7.908 17.599 17.599 0 00-3.825-19.201 17.661 17.661 0 00-19.226-3.82 17.635 17.635 0 00-7.916 6.49 17.601 17.601 0 002.194 22.247 17.65 17.65 0 0012.474 5.161z" fill="#fff"/><path d="M58.292 128.404c9.743 0 17.641-7.889 17.641-17.62 0-9.731-7.898-17.62-17.641-17.62-9.743 0-17.642 7.889-17.642 17.62 0 9.731 7.899 17.62 17.642 17.62z" stroke="#231F20" stroke-width="2.717" stroke-miterlimit="10"/><path d="M47.809 114.438v-2.282h-3.9v-.75l3.743-5.351h1.225v5.218h1.174v.892h-1.174v2.282H47.81v-.009zm0-3.174v-2.799c0-.44.013-.878.038-1.314h-.038c-.257.474-.475.849-.698 1.238l-2.052 2.846v.024h2.75v.005zm3.381 1.869a3.808 3.808 0 001.858.527c1.458 0 1.9-.949 1.9-1.623 0-1.172-1.074-1.675-2.166-1.675h-.632v-.849h.632c.826 0 1.872-.427 1.872-1.423 0-.669-.428-1.262-1.473-1.262a3.091 3.091 0 00-1.677.555l-.294-.825a3.993 3.993 0 012.194-.646c1.653 0 2.399.982 2.399 1.998a2.08 2.08 0 01-1.549 1.973v.024a2.187 2.187 0 011.872 2.154c0 1.342-1.045 2.514-3.06 2.514a4.274 4.274 0 01-2.18-.569l.305-.873zm6.442.636a.766.766 0 01.774-.812.818.818 0 01.839.945.809.809 0 01-.628.658.81.81 0 01-.985-.791zm8.155-3.611c0 2.847-1.059 4.422-2.916 4.422-1.639 0-2.75-1.532-2.774-4.308-.024-2.775 1.211-4.36 2.916-4.36 1.706 0 2.774 1.575 2.774 4.246zm-4.555.128c0 2.178.67 3.416 1.705 3.416 1.164 0 1.715-1.352 1.715-3.496 0-2.064-.527-3.416-1.705-3.416-.993.019-1.715 1.215-1.715 3.496zm5.6 4.151v-.697l.894-.863c2.142-2.036 3.11-3.122 3.125-4.384a1.49 1.49 0 00-1.006-1.567 1.5 1.5 0 00-.661-.07 2.853 2.853 0 00-1.781.712l-.362-.802a3.688 3.688 0 012.376-.849c1.805 0 2.57 1.238 2.57 2.439 0 1.546-1.126 2.799-2.893 4.497l-.67.617v.023h3.771v.949h-5.358l-.005-.005z" fill="#231F20"/></g><defs><clipPath id="clip0"><path fill="#fff" d="M0 0h190v240H0z"/></clipPath></defs></svg>