<svg width="181" height="453" fill="none" xmlns="http://www.w3.org/2000/svg"><g clip-path="url(#clip0)"><path d="M154.882 441.206h-45.825v11.62h45.825v-11.62z" fill="#fff"/><path d="M154.71 441.378v11.276h-45.476v-11.276h45.476zm.344-.344h-46.155v11.964h46.155v-11.964z" fill="#D4463D"/><path d="M154.882 445.781h-45.825v2.466h45.825v-2.466z" fill="#fff"/><path d="M154.71 445.953v2.14h-45.476v-2.122h45.476v-.018zm.344-.326h-46.155v2.814h46.155v-2.814z" fill="#D4463D"/><path d="M154.882 37.835h-45.825v11.62h45.825v-11.62z" fill="#fff"/><path d="M154.71 38.012v11.276h-45.476V38.012h45.476zm.344-.344h-46.155v11.964h46.155V37.668z" fill="#D4463D"/><path d="M154.882 42.414h-45.825v2.466h45.825v-2.466z" fill="#fff"/><path d="M154.71 42.586v2.123h-45.476v-2.123h45.476zm.344-.344h-46.155v2.815h46.155v-2.815z" fill="#D4463D"/><path d="M79.264 37.835H42.77v11.62h36.494v-11.62z" fill="#fff"/><path d="M79.092 38.012v11.276h-36.15V38.012h36.15zm.344-.344H42.594v11.964h36.842V37.668z" fill="#D4463D"/><path d="M79.264 42.414H42.77v2.466h36.494v-2.466z" fill="#fff"/><path d="M79.092 42.586v2.123h-36.15v-2.123h36.15zm.344-.344H42.594v2.815h36.842v-2.815z" fill="#D4463D"/><path d="M36.535 210.09l-19.227 19.335m78.228 76.322l15.829 16.231m10.9-39.299l-14.099-14.561m14.099-47.231l-13.584 15.108m-14.787-33.674l15.656-17.792m-32.915 17.792l-15.353-17.792M79.01 43.645L64.595 57.632" stroke="#585852" stroke-width="1.079" stroke-miterlimit="10" stroke-linecap="round"/><path d="M85.16 452.998h23.725v-11.964H85.16v11.964zm69.898 0h23.725v-11.964h-23.725v11.964zm-.004-403.366H181V37.668h-25.946v11.964zm-76.038 0h30.448V37.668H79.016v11.964zm-77.075 0h40.657V37.668H1.941v11.964z" fill="#D4463D"/><path d="M.28 43.645h4.11V1.75H.28v41.896zm169.738-2.796v412.149H181V40.848h-10.982zM88.341 46.7h-2.624v155.616h2.624V46.699zm35.237 235.979h-2.625v23.068h2.625v-23.068zm0-42.385h-2.625v23.068h2.625v-23.068z" fill="#D4463D"/><path d="M172.09 251.15v-2.625h-50.055v2.625h50.055zm0-33.566v-2.625h-22.376v2.625h22.376zm0 87.756v-4.683h-50.055v4.683h50.055zm-48.512-103.856h-2.625v19.407h2.625v-19.407z" fill="#D4463D"/><path d="M172.149 203.633v-2.624h-54.698v2.624h54.698zm-78.255-.004v-2.625H76.635v2.625h17.259zm-39.794.004v-2.624H36.843v2.624h17.259zM95.536 307.06v-2.625h-7.194v2.625h7.194zm75.975 0v-2.625H118.27v2.625h53.241zm-81.169-51.594v-4.819H33.82v4.819h56.522zM0 204.507h5.435V37.667H0v166.84z" fill="#D4463D"/><path d="M84.907 452.998h5.435v-202.12h-5.435v202.12zM33.82 252.303h5.434v-17.126H33.82v17.126zm0-42.213h5.434v-8.561H33.82v8.561z" fill="#D4463D"/><path d="M0 201.009v4.801h36.843v-4.801H0zM95.342 36.324v1.357H92.69v-1.357A33.724 33.724 0 0059.006 2.636H57.68V-.016h1.326a36.377 36.377 0 0136.336 36.34zM57.68.002H.28v2.652h57.4V.002zm91.342 204.324v12.57H124.27v-12.57h24.752zm.692-.693h-26.136v13.955h26.154v-13.955h-.018z" fill="#D4463D"/><path d="M143.628 205.407h-13.96v10.403h13.96v-10.403zm-15.72 0h-2.701v10.403h2.701v-10.403zm20.182 0h-2.702v10.403h2.702v-10.403z" stroke="#D4463D" stroke-width=".54" stroke-linecap="round" stroke-linejoin="round"/><path d="M99.107 73.23s-2.227 0-2.227 2.225v7.842s0 2.227 2.227 2.227h8.09s2.227 0 2.227-2.227v-7.841s0-2.227-2.227-2.227h-8.091z" fill="#fff" stroke="#626366" stroke-width=".27"/><path d="M96.007 72.32a57.555 57.555 0 00-.688 6.99c.013 2.353.243 4.7.688 7.01h2.04a30.097 30.097 0 01-.76-7.01c.057-2.351.31-4.695.76-7.004h-2.04v.014zm63.875 13.1s2.226 0 2.226-2.227v-7.842s0-2.226-2.226-2.226H151.8s-2.226 0-2.226 2.226v7.842s0 2.226 2.226 2.226h8.082z" fill="#fff" stroke="#626366" stroke-width=".27"/><path d="M162.986 86.329a57.53 57.53 0 00.683-7.018 38.085 38.085 0 00-.688-7.01h-2.04c.528 2.299.785 4.651.764 7.01a41.827 41.827 0 01-.76 7.004h2.041v.014zm-28.494 13.864s0 2.227 2.226 2.227h7.842s2.226 0 2.226-2.227v-8.081s0-2.227-2.226-2.227h-7.842s-2.226 0-2.226 2.227v8.081z" fill="#fff" stroke="#626366" stroke-width=".27"/><path d="M133.583 103.293c2.318.372 4.657.601 7.004.688a38.164 38.164 0 007.009-.688v-2.036a30.103 30.103 0 01-7.009.76 41.922 41.922 0 01-7.004-.76v2.036zm-20.196-3.1s0 2.227 2.227 2.227h7.842s2.226 0 2.226-2.227v-8.081s0-2.227-2.226-2.227h-7.842s-2.227 0-2.227 2.227v8.081z" fill="#fff" stroke="#626366" stroke-width=".27"/><path d="M112.473 103.293c2.319.372 4.658.601 7.005.688a38.164 38.164 0 007.009-.688v-2.036a30.103 30.103 0 01-7.009.76 41.946 41.946 0 01-7.005-.76v2.036zm13.105-44.2s0-2.226-2.226-2.226h-7.842s-2.227 0-2.227 2.226v8.082s0 2.226 2.227 2.226h7.842s2.226 0 2.226-2.226v-8.082z" fill="#fff" stroke="#626366" stroke-width=".27"/><path d="M126.487 55.994a57.569 57.569 0 00-7.004-.665 38.184 38.184 0 00-7.01.687v2.028a30.101 30.101 0 017.01-.76 41.85 41.85 0 017.004.76v-2.05zm20.195 3.099s0-2.226-2.226-2.226h-7.846s-2.227 0-2.227 2.226v8.082s0 2.226 2.227 2.226h7.841s2.227 0 2.227-2.226v-8.082h.004z" fill="#fff" stroke="#626366" stroke-width=".27"/><path d="M147.597 55.994a57.587 57.587 0 00-7.01-.665 38.173 38.173 0 00-7.009.687v2.028a30.099 30.099 0 017.009-.76c2.354.055 4.699.31 7.01.76v-2.05zm6.276 11.439s0-2.227-2.227-2.227h-44.675s-2.226 0-2.226 2.227v23.783s0 2.226 2.226 2.226h44.675s2.227 0 2.227-2.226V67.433z" fill="#fff" stroke="#626366" stroke-width=".27"/><path d="M169.846 126.176h-17.367v74.656h17.367v-74.656z" fill="#fff"/><path d="M169.669 126.37v74.295h-17.023V126.37h17.023zm.344-.344h-17.711v75.005h17.711v-75.028.023z" fill="#626366"/><path d="M169.846 183.466h-48.752v17.366h48.752v-17.366z" fill="#fff"/><path d="M169.669 183.642v17.023h-48.417v-17.023h48.417zm.344-.344h-49.096v17.733h49.096v-17.733z" fill="#626366"/><path d="M169.846 135.967h-17.367v17.367h17.367v-17.367z" fill="#fff"/><path d="M169.669 136.144v17.023h-17.023v-17.023h17.023zm.344-.344h-17.711v17.72h17.711v-17.725.005z" fill="#626366"/><path d="M157.063 145.375a3.196 3.196 0 013.133 3.818 3.2 3.2 0 01-4.356 2.328 3.195 3.195 0 011.223-6.146z" fill="#fff"/><path d="M157.063 145.375a3.196 3.196 0 013.133 3.818 3.2 3.2 0 01-4.356 2.328 3.195 3.195 0 011.223-6.146m-3.037 6.221l6.073-6.072m0 6.072l-6.073-6.072" stroke="#626366" stroke-width=".27" stroke-linecap="round"/><path d="M165.257 145.375a3.194 3.194 0 11.002 6.388 3.194 3.194 0 01-.002-6.388z" fill="#fff"/><path d="M165.257 145.375a3.194 3.194 0 11.002 6.388 3.194 3.194 0 01-.002-6.388m-3.036 6.221l6.073-6.072m0 6.072l-6.073-6.072" stroke="#626366" stroke-width=".27" stroke-linecap="round"/><path d="M157.063 137.547a3.196 3.196 0 012.951 1.972 3.193 3.193 0 01-2.328 4.355 3.196 3.196 0 01-3.818-3.133 3.196 3.196 0 013.195-3.194z" fill="#fff"/><path d="M157.063 137.547a3.196 3.196 0 012.951 1.972 3.193 3.193 0 01-2.328 4.355 3.196 3.196 0 01-3.818-3.133 3.196 3.196 0 013.195-3.194m-3.037 6.231l6.073-6.073m0 6.073l-6.073-6.073" stroke="#626366" stroke-width=".27" stroke-linecap="round"/><path d="M165.257 137.547a3.194 3.194 0 11.002 6.388 3.194 3.194 0 01-.002-6.388z" fill="#fff"/><path d="M165.257 137.547a3.194 3.194 0 11.002 6.388 3.194 3.194 0 01-.002-6.388m-3.036 6.231l6.073-6.073m0 6.073l-6.073-6.073" stroke="#626366" stroke-width=".27" stroke-linecap="round"/><path d="M135.144 183.466h-17.367v17.366h17.367v-17.366z" fill="#fff"/><path d="M134.972 183.642v17.023h-17.023v-17.023h17.023zm.344-.344h-17.711v17.733h17.711v-17.733z" fill="#626366"/><path d="M123.424 195.19l6.073-6.073m0 6.073l-6.073-6.073m3.036-1.249v8.566m4.281-4.28h-8.561" stroke="#626366" stroke-width=".27" stroke-linecap="round"/><path d="M169.846 183.466h-17.367v17.366h17.367v-17.366z" fill="#fff"/><path d="M169.669 183.642v17.023h-17.023v-17.023h17.023zm.344-.344h-17.711v17.733h17.711v-17.733z" fill="#626366"/><path d="M155.809 194.724c-.081 0-1.982-.028-1.982-1.982v-5.539c0-.081.028-1.982 1.982-1.982h7.951c.081 0 1.982.027 1.982 1.982v5.539c0 .081-.027 1.982-1.982 1.982h-7.973.022z" fill="#fff"/><path d="M163.76 185.393a1.745 1.745 0 011.303.508 1.725 1.725 0 01.507 1.302v5.539c0 .072 0 1.81-1.81 1.81h-7.969c-.072 0-1.81 0-1.81-1.81v-5.539c0-.072 0-1.81 1.81-1.81h7.969zm0-.344h-7.969c-2.154 0-2.154 2.154-2.154 2.154v5.539c0 2.154 2.154 2.154 2.154 2.154h7.969c2.154 0 2.154-2.154 2.154-2.154v-5.539c0-2.154-2.154-2.154-2.154-2.154z" fill="#626366"/><path d="M162.429 192.669a.65.65 0 01.771-.654.656.656 0 01.484.887.653.653 0 01-1.06.221.653.653 0 01-.195-.454z" fill="#fff"/><path d="M162.429 192.669a.65.65 0 01.771-.654.656.656 0 01.484.887.653.653 0 01-1.06.221.653.653 0 01-.195-.454" stroke="#626366" stroke-width=".27"/><path d="M102.541 431.844c.846 0 1.534-.941 1.534-2.1 0-1.158-.688-2.099-1.534-2.099-.846 0-1.534.941-1.534 2.099 0 1.159.688 2.1 1.534 2.1zm-.036.167a1.522 1.522 0 00.828 1.616c1.118.638 1.851-.638 3.267-.335 1.579.335 2.398 1.982 2.398 1.982m-10.846-15.562h-7.639v21.145h7.639v-21.145z" fill="#fff"/><path d="M97.98 419.889v20.815h-7.294v-20.815h7.294zm.344-.344h-7.987v21.489h7.987v-21.493.004z" fill="#626366"/><path d="M90.509 424.355v1.647h6.787a.874.874 0 00.349-.823.906.906 0 00-.349-.824H90.51z" fill="#fff"/><path d="M90.509 424.355v1.647h6.787a.874.874 0 00.349-.823.906.906 0 00-.349-.824H90.51v0z" stroke="#626366" stroke-width=".27" stroke-linecap="round" stroke-linejoin="round"/><path d="M90.509 426.568v1.212h5.923a.626.626 0 00.303-.606.647.647 0 00-.303-.606H90.51z" fill="#fff"/><path d="M90.509 426.568v1.212h5.923a.626.626 0 00.303-.606.647.647 0 00-.303-.606H90.51v0z" stroke="#626366" stroke-width=".27" stroke-linecap="round" stroke-linejoin="round"/><path d="M90.509 428.427v1.213h6.231a.618.618 0 00.321-.606.637.637 0 00-.321-.607h-6.231z" fill="#fff"/><path d="M90.509 428.427v1.213h6.231a.618.618 0 00.321-.606.637.637 0 00-.321-.607h-6.231v0z" stroke="#626366" stroke-width=".27" stroke-linecap="round" stroke-linejoin="round"/><path d="M90.509 431.55v1.778h6.511a.986.986 0 00.335-.905 1.013 1.013 0 00-.335-.905h-6.51v.032z" fill="#fff"/><path d="M90.509 431.55v1.778h6.511a.986.986 0 00.335-.905 1.013 1.013 0 00-.335-.905h-6.51v.032z" stroke="#626366" stroke-width=".27" stroke-linecap="round" stroke-linejoin="round"/><path d="M90.509 435.423v1.213h6.231a.626.626 0 00.321-.607.64.64 0 00-.321-.606h-6.231z" fill="#fff"/><path d="M90.509 435.423v1.213h6.231a.626.626 0 00.321-.607.64.64 0 00-.321-.606h-6.231v0z" stroke="#626366" stroke-width=".27" stroke-linecap="round" stroke-linejoin="round"/><path d="M116.157 427.645a5.884 5.884 0 00.179-10.827 5.883 5.883 0 00-7.917 7.388 5.992 5.992 0 007.738 3.439z" fill="#fff"/><path d="M116.157 427.645a5.884 5.884 0 00.179-10.827 5.883 5.883 0 00-7.917 7.388 5.992 5.992 0 007.738 3.439" stroke="#626366" stroke-width=".27" stroke-linejoin="round"/><path d="M106.256 421.237l2.43 6.62 1.52-.547-2.43-6.62-1.52.547zm11.833-4.307l2.43 6.62 1.52-.548-2.43-6.62-1.52.548zm-1.579-3.326l.751 2.072-9.634 3.53-.751-2.077 9.634-3.525z" fill="#fff" stroke="#626366" stroke-width=".27" stroke-linejoin="round"/><path d="M125.628 425.36H98.46v15.498h27.168V425.36z" fill="#fff"/><path d="M125.451 425.536v15.154h-26.82v-15.154h26.82zm.344-.344H98.283v15.837h27.512v-15.837z" fill="#626366"/><path d="M102.545 431.844c.848 0 1.534-.94 1.534-2.1 0-1.159-.686-2.099-1.534-2.099-.847 0-1.534.94-1.534 2.099 0 1.16.687 2.1 1.534 2.1zm-1.294-1.349h2.53m-1.267-2.783v2.53m-.009 1.769a1.522 1.522 0 00.828 1.616c1.118.638 1.851-.638 3.267-.335 1.579.335 2.398 1.982 2.398 1.982" stroke="#626366" stroke-width=".27" stroke-linecap="round" stroke-linejoin="round"/><path d="M119.433 430.369h-10.521v6.742h10.521v-6.742z" fill="#fff" stroke="#626366" stroke-width=".27" stroke-linejoin="round"/><path d="M110.247 431.215h-.774v.728h.774v-.728z" fill="#fff"/><path d="M110.247 431.215h-.774v.733h.774v-.733z" stroke="#626366" stroke-width=".27" stroke-linecap="round" stroke-linejoin="round"/><path d="M111.328 431.215h-.773v.728h.773v-.728z" fill="#fff"/><path d="M111.328 431.215h-.773v.733h.773v-.733z" stroke="#626366" stroke-width=".27" stroke-linecap="round" stroke-linejoin="round"/><path d="M112.406 431.215h-.774v.728h.774v-.728z" fill="#fff"/><path d="M112.406 431.215h-.774v.733h.774v-.733z" stroke="#626366" stroke-width=".27" stroke-linecap="round" stroke-linejoin="round"/><path d="M115.283 431.215h-3.642v.728h3.642v-.728z" fill="#fff"/><path d="M115.283 431.215h-3.642v.733h3.642v-.733z" stroke="#626366" stroke-width=".27" stroke-linecap="round" stroke-linejoin="round"/><path d="M114.559 431.215h-.773v.728h.773v-.728z" fill="#fff"/><path d="M114.559 431.215h-.773v.733h.773v-.733z" stroke="#626366" stroke-width=".27" stroke-linecap="round" stroke-linejoin="round"/><path d="M115.636 431.215h-.773v.728h.773v-.728z" fill="#fff"/><path d="M115.636 431.215h-.773v.733h.773v-.733z" stroke="#626366" stroke-width=".27" stroke-linecap="round" stroke-linejoin="round"/><path d="M116.713 431.215h-.773v.728h.773v-.728z" fill="#fff"/><path d="M116.718 431.215h-.774v.733h.774v-.733z" stroke="#626366" stroke-width=".27" stroke-linecap="round" stroke-linejoin="round"/><path d="M117.795 431.215h-.774v.728h.774v-.728z" fill="#fff"/><path d="M117.795 431.215h-.774v.733h.774v-.733z" stroke="#626366" stroke-width=".27" stroke-linecap="round" stroke-linejoin="round"/><path d="M118.872 431.215h-.774v.728h.774v-.728z" fill="#fff"/><path d="M118.872 431.215h-.774v.733h.774v-.733z" stroke="#626366" stroke-width=".27" stroke-linecap="round" stroke-linejoin="round"/><path d="M110.243 432.219h-.774v.733h.774v-.733z" fill="#fff"/><path d="M110.243 432.219h-.774v.733h.774v-.733z" stroke="#626366" stroke-width=".27" stroke-linecap="round" stroke-linejoin="round"/><path d="M111.32 432.219h-.774v.733h.774v-.733z" fill="#fff"/><path d="M111.324 432.219h-.774v.733h.774v-.733z" stroke="#626366" stroke-width=".27" stroke-linecap="round" stroke-linejoin="round"/><path d="M112.401 432.219h-.774v.733h.774v-.733z" fill="#fff"/><path d="M112.401 432.219h-.774v.733h.774v-.733z" stroke="#626366" stroke-width=".27" stroke-linecap="round" stroke-linejoin="round"/><path d="M113.478 432.219h-.774v.733h.774v-.733z" fill="#fff"/><path d="M113.478 432.219h-.774v.733h.774v-.733z" stroke="#626366" stroke-width=".27" stroke-linecap="round" stroke-linejoin="round"/><path d="M114.555 432.219h-.774v.733h.774v-.733z" fill="#fff"/><path d="M114.555 432.219h-.774v.733h.774v-.733z" stroke="#626366" stroke-width=".27" stroke-linecap="round" stroke-linejoin="round"/><path d="M115.632 432.219h-.774v.733h.774v-.733z" fill="#fff"/><path d="M115.632 432.219h-.774v.733h.774v-.733z" stroke="#626366" stroke-width=".27" stroke-linecap="round" stroke-linejoin="round"/><path d="M116.709 432.219h-.774v.733h.774v-.733z" fill="#fff"/><path d="M116.713 432.219h-.773v.733h.773v-.733z" stroke="#626366" stroke-width=".27" stroke-linecap="round" stroke-linejoin="round"/><path d="M117.79 432.219h-.773v.733h.773v-.733z" fill="#fff"/><path d="M117.79 432.219h-.773v.733h.773v-.733z" stroke="#626366" stroke-width=".27" stroke-linecap="round" stroke-linejoin="round"/><path d="M118.867 432.219h-.773v.733h.773v-.733z" fill="#fff"/><path d="M118.867 432.219h-.773v.733h.773v-.733z" stroke="#626366" stroke-width=".27" stroke-linecap="round" stroke-linejoin="round"/><path d="M110.247 433.26h-.774v.729h.774v-.729z" fill="#fff"/><path d="M110.247 433.26h-.774v.733h.774v-.733z" stroke="#626366" stroke-width=".27" stroke-linecap="round" stroke-linejoin="round"/><path d="M111.328 433.26h-.773v.729h.773v-.729z" fill="#fff"/><path d="M111.328 433.26h-.773v.733h.773v-.733z" stroke="#626366" stroke-width=".27" stroke-linecap="round" stroke-linejoin="round"/><path d="M112.406 433.26h-.774v.729h.774v-.729z" fill="#fff"/><path d="M112.406 433.26h-.774v.733h.774v-.733z" stroke="#626366" stroke-width=".27" stroke-linecap="round" stroke-linejoin="round"/><path d="M113.483 433.26h-.774v.729h.774v-.729z" fill="#fff"/><path d="M113.483 433.26h-.774v.733h.774v-.733z" stroke="#626366" stroke-width=".27" stroke-linecap="round" stroke-linejoin="round"/><path d="M114.559 433.26h-.773v.729h.773v-.729z" fill="#fff"/><path d="M114.559 433.26h-.773v.733h.773v-.733z" stroke="#626366" stroke-width=".27" stroke-linecap="round" stroke-linejoin="round"/><path d="M115.636 433.26h-.773v.729h.773v-.729z" fill="#fff"/><path d="M115.636 433.26h-.773v.733h.773v-.733z" stroke="#626366" stroke-width=".27" stroke-linecap="round" stroke-linejoin="round"/><path d="M116.713 433.26h-.773v.729h.773v-.729z" fill="#fff"/><path d="M116.718 433.26h-.774v.733h.774v-.733z" stroke="#626366" stroke-width=".27" stroke-linecap="round" stroke-linejoin="round"/><path d="M117.795 433.26h-.774v.729h.774v-.729z" fill="#fff"/><path d="M117.795 433.26h-.774v.733h.774v-.733z" stroke="#626366" stroke-width=".27" stroke-linecap="round" stroke-linejoin="round"/><path d="M118.872 433.26h-.774v.729h.774v-.729z" fill="#fff"/><path d="M118.872 433.26h-.774v.733h.774v-.733z" stroke="#626366" stroke-width=".27" stroke-linecap="round" stroke-linejoin="round"/><path d="M110.247 434.301h-.774v.733h.774v-.733z" fill="#fff"/><path d="M110.247 434.301h-.774v.733h.774v-.733z" stroke="#626366" stroke-width=".27" stroke-linecap="round" stroke-linejoin="round"/><path d="M111.328 434.301h-.773v.733h.773v-.733z" fill="#fff"/><path d="M111.328 434.301h-.773v.733h.773v-.733z" stroke="#626366" stroke-width=".27" stroke-linecap="round" stroke-linejoin="round"/><path d="M112.406 434.301h-.774v.733h.774v-.733z" fill="#fff"/><path d="M112.406 434.301h-.774v.733h.774v-.733z" stroke="#626366" stroke-width=".27" stroke-linecap="round" stroke-linejoin="round"/><path d="M113.483 434.301h-.774v.733h.774v-.733z" fill="#fff"/><path d="M113.483 434.301h-.774v.733h.774v-.733z" stroke="#626366" stroke-width=".27" stroke-linecap="round" stroke-linejoin="round"/><path d="M114.559 434.301h-.773v.733h.773v-.733z" fill="#fff"/><path d="M114.559 434.301h-.773v.733h.773v-.733z" stroke="#626366" stroke-width=".27" stroke-linecap="round" stroke-linejoin="round"/><path d="M115.636 434.301h-.773v.733h.773v-.733z" fill="#fff"/><path d="M115.636 434.301h-.773v.733h.773v-.733z" stroke="#626366" stroke-width=".27" stroke-linecap="round" stroke-linejoin="round"/><path d="M116.713 434.301h-.773v.733h.773v-.733z" fill="#fff"/><path d="M116.718 434.301h-.774v.733h.774v-.733z" stroke="#626366" stroke-width=".27" stroke-linecap="round" stroke-linejoin="round"/><path d="M117.795 434.301h-.774v.733h.774v-.733z" fill="#fff"/><path d="M117.795 434.301h-.774v.733h.774v-.733z" stroke="#626366" stroke-width=".27" stroke-linecap="round" stroke-linejoin="round"/><path d="M118.872 434.301h-.774v.733h.774v-.733z" fill="#fff"/><path d="M118.872 434.301h-.774v.733h.774v-.733z" stroke="#626366" stroke-width=".27" stroke-linecap="round" stroke-linejoin="round"/><path d="M53.925 184.941H5.607v15.891h48.318v-15.891z" fill="#fff"/><path d="M53.752 185.117v15.548H5.788v-15.548h47.965zm.344-.344H5.435v16.258H54.1v-16.262l-.005.004z" fill="#626366"/><path d="M49.2 188.076h-7.276v8.62H49.2v-8.62zm-3.638 7.507v-7.389" stroke="#626366" stroke-width=".27" stroke-linecap="round" stroke-linejoin="round"/><path d="M45.562 198.045c1.2 0 2.172-.555 2.172-1.24 0-.685-.972-1.24-2.172-1.24-1.2 0-2.172.555-2.172 1.24 0 .685.973 1.24 2.172 1.24z" fill="#fff" stroke="#626366" stroke-width=".27" stroke-linecap="round" stroke-linejoin="round"/><path d="M45.558 195.787l1.081-2.833 2.018 3.761-1.71 1.045a1.9 1.9 0 00-.308-1.195 3.674 3.674 0 00-1.081-.778z" fill="#fff" stroke="#626366" stroke-width=".27" stroke-linecap="round" stroke-linejoin="round"/><path d="M45.571 195.801l-1.081-2.833-2.018 3.76 1.71 1.045a1.9 1.9 0 01.308-1.194c.31-.323.676-.587 1.081-.778z" fill="#fff" stroke="#626366" stroke-width=".27" stroke-linecap="round" stroke-linejoin="round"/><path d="M33.318 195.04a1.126 1.126 0 01-1.209 1.127c-1.253.068-1.226-1.231-1.126-1.566.262-.877 1.167-.687 1.167-1.099 0-.412.027-1.045.027-1.045" stroke="#626366" stroke-width=".27" stroke-linecap="round" stroke-linejoin="round"/><path d="M25.992 190.113c.258 1.457 2.886 2.606 6.135 2.606 3.25 0 5.883-1.149 6.136-2.606H25.992zm-8.335 4.927a1.126 1.126 0 01-1.209 1.127c-1.253.068-1.226-1.231-1.126-1.566.262-.877 1.167-.687 1.167-1.099 0-.412.027-1.045.027-1.045" stroke="#626366" stroke-width=".27" stroke-linecap="round" stroke-linejoin="round"/><path d="M10.33 190.113c.258 1.457 2.887 2.606 6.136 2.606 3.25 0 5.883-1.149 6.136-2.606H10.331z" stroke="#626366" stroke-width=".27" stroke-linecap="round" stroke-linejoin="round"/><path d="M66.128 89.56H5.607v49.873h60.521V89.56z" fill="#fff"/><path d="M65.957 89.718v49.548H5.774V89.718h60.183zm.343-.344H5.435v50.227H66.3V89.374z" fill="#626366"/><path d="M21.06 109.831s0 2.58-2.58 2.58h-7.99s-2.58 0-2.58-2.58V97.067s0-2.58 2.58-2.58h7.991s2.58 0 2.58 2.58v12.764zm0 22.1s0 2.579-2.58 2.579h-7.99s-2.58 0-2.58-2.579v-12.76s0-2.579 2.58-2.579h7.991s2.58 0 2.58 2.579v12.765-.005z" fill="#fff" stroke="#626366" stroke-width=".27" stroke-linejoin="round"/><path d="M64.35 91.56v45.855l-34.236.018-12.123-12.407.028-33.44 46.331-.026z" fill="#fff" stroke="#626366" stroke-width=".27" stroke-linejoin="round"/><path d="M30.164 137.379l-12.14-12.262 11.447.755.693 11.507z" fill="#fff" stroke="#626366" stroke-width=".27" stroke-linejoin="round"/><path d="M17.715 75.148H5.607v12.108h12.108V75.148z" fill="#fff"/><path d="M17.544 75.32v11.765H5.778V75.32h11.766zm.343-.344H5.435v12.453h12.452V74.975z" fill="#626366"/><path d="M17.715 141.746H5.607v12.108h12.108v-12.108z" fill="#fff"/><path d="M17.544 141.918v11.764H5.778v-11.764h11.766zm.343-.344H5.435v12.452h12.452v-12.452z" fill="#626366"/><path d="M169.841 384.807h-15.892v56.05h15.892v-56.05z" fill="#fff"/><path d="M169.67 384.979v55.706h-15.548v-55.706h15.548zm.343-.344h-16.24v56.399h16.24v-56.399z" fill="#626366"/><path d="M165.706 399.002h-8.621v7.276h8.621v-7.276zm-1.114 3.638h-7.389" stroke="#626366" stroke-width=".27" stroke-linecap="round" stroke-linejoin="round"/><path d="M165.814 404.812c.685 0 1.24-.973 1.24-2.172 0-1.2-.555-2.172-1.24-2.172-.685 0-1.24.972-1.24 2.172 0 1.199.555 2.172 1.24 2.172z" fill="#fff" stroke="#626366" stroke-width=".27" stroke-linecap="round" stroke-linejoin="round"/><path d="M164.791 402.649l-2.832-1.082 3.76-2.018 1.045 1.711a1.903 1.903 0 00-1.194.307 3.705 3.705 0 00-.779 1.082z" fill="#fff" stroke="#626366" stroke-width=".27" stroke-linecap="round" stroke-linejoin="round"/><path d="M164.805 402.635l-2.833 1.082 3.761 2.018 1.045-1.711a1.9 1.9 0 01-1.195-.307 3.689 3.689 0 01-.778-1.082z" fill="#fff" stroke="#626366" stroke-width=".27" stroke-linecap="round" stroke-linejoin="round"/><path d="M165.706 388.613h-8.621v7.276h8.621v-7.276zm-1.114 3.637h-7.389" stroke="#626366" stroke-width=".27" stroke-linecap="round" stroke-linejoin="round"/><path d="M165.814 394.423c.685 0 1.24-.973 1.24-2.172 0-1.2-.555-2.172-1.24-2.172-.685 0-1.24.972-1.24 2.172 0 1.199.555 2.172 1.24 2.172z" fill="#fff" stroke="#626366" stroke-width=".27" stroke-linecap="round" stroke-linejoin="round"/><path d="M164.791 392.26l-2.832-1.082 3.76-2.018 1.045 1.711a1.897 1.897 0 00-1.194.307c-.323.31-.587.677-.779 1.082z" fill="#fff" stroke="#626366" stroke-width=".27" stroke-linecap="round" stroke-linejoin="round"/><path d="M164.805 392.246l-2.833 1.082 3.761 2.018 1.045-1.711a1.9 1.9 0 01-1.208-.294 3.664 3.664 0 01-.765-1.095z" fill="#fff" stroke="#626366" stroke-width=".27" stroke-linecap="round" stroke-linejoin="round"/><path d="M164.049 414.884a1.128 1.128 0 011.127 1.208c.068 1.254-1.231 1.227-1.566 1.127-.877-.262-.687-1.167-1.099-1.167-.412 0-1.045-.027-1.045-.027" stroke="#626366" stroke-width=".27" stroke-linecap="round" stroke-linejoin="round"/><path d="M159.122 422.21c1.457-.258 2.606-2.887 2.606-6.136s-1.149-5.882-2.606-6.136v12.272zm4.927 8.34a1.127 1.127 0 011.127 1.208c.068 1.253-1.231 1.226-1.566 1.126-.877-.262-.687-1.167-1.099-1.167-.412 0-1.045-.027-1.045-.027" stroke="#626366" stroke-width=".27" stroke-linecap="round" stroke-linejoin="round"/><path d="M159.122 437.871c1.457-.258 2.606-2.887 2.606-6.136s-1.149-5.882-2.606-6.136v12.272z" stroke="#626366" stroke-width=".27" stroke-linecap="round" stroke-linejoin="round"/><path d="M169.841 307.231h-24.082v60.721h24.082v-60.721z" fill="#fff"/><path d="M169.669 307.403v60.377h-23.738v-60.377h23.738zm.344-.343h-24.435v61.086h24.435V307.06z" fill="#626366"/><path d="M151.764 322.232c-2.263 0-2.29-2.195-2.29-2.29v-7.597c0-2.263 2.195-2.29 2.29-2.29h12.168c2.262 0 2.289 2.195 2.289 2.29v7.602c0 2.262-2.194 2.285-2.289 2.285h-12.168z" fill="#fff"/><path d="M163.932 310.209c2.04 0 2.113 1.901 2.113 2.113v7.625c0 2.041-1.901 2.113-2.113 2.113h-12.168c-2.041 0-2.113-1.901-2.113-2.113v-7.602c0-2.041 1.9-2.113 2.113-2.113h12.168v-.023zm0-.321h-12.168s-2.462 0-2.462 2.461v7.598s0 2.461 2.462 2.461h12.168s2.461 0 2.461-2.461v-7.602s0-2.462-2.461-2.462v.005z" fill="#626366"/><path d="M147.968 366.169h19.878l.018-34.353-12.353-12.136h-7.521l-.022 46.489z" fill="#fff" stroke="#626366" stroke-width=".27" stroke-linejoin="round"/><path d="M167.778 331.865l-12.299-12.176.756 11.484 11.543.692z" fill="#fff" stroke="#626366" stroke-width=".27" stroke-linejoin="round"/><path d="M90.17 235.444H39.426v15.027H90.17v-15.027z" fill="#fff"/><path d="M90.002 235.62v14.683H39.598V235.62h50.404zm.344-.344H39.26v15.385h51.087v-15.385z" fill="#626366"/><path d="M81.644 244.86a1.131 1.131 0 01-.358.827 1.124 1.124 0 01-.85.3c-1.253.067-1.226-1.231-1.126-1.566.262-.878 1.167-.688 1.167-1.1 0-.411.027-1.045.027-1.045" stroke="#626366" stroke-width=".27" stroke-linecap="round" stroke-linejoin="round"/><path d="M74.323 239.946c.258 1.457 2.887 2.606 6.136 2.606 3.25 0 5.883-1.149 6.136-2.606H74.323zm-8.339 4.914a1.131 1.131 0 01-.359.827 1.124 1.124 0 01-.85.3c-1.253.067-1.226-1.231-1.126-1.566.262-.878 1.167-.688 1.167-1.1 0-.411.027-1.045.027-1.045" stroke="#626366" stroke-width=".27" stroke-linecap="round" stroke-linejoin="round"/><path d="M58.662 239.946c.258 1.457 2.887 2.606 6.136 2.606s5.882-1.149 6.136-2.606H58.662zm-8.34 4.914a1.13 1.13 0 01-1.208 1.127c-1.253.067-1.226-1.231-1.126-1.566.262-.878 1.167-.688 1.167-1.1 0-.411.027-1.045.027-1.045" stroke="#626366" stroke-width=".27" stroke-linecap="round" stroke-linejoin="round"/><path d="M43.001 239.946c.258 1.457 2.887 2.606 6.136 2.606s5.883-1.149 6.136-2.606H43z" stroke="#626366" stroke-width=".27" stroke-linecap="round" stroke-linejoin="round"/><path d="M150.017 231.348c0 3.729 4.254 6.756 9.503 6.756 5.249 0 9.502-3.022 9.502-6.756 0-3.733-4.253-6.755-9.502-6.755-5.249 0-9.503 3.022-9.503 6.755z" fill="#fff" stroke="#626366" stroke-width=".27"/><path d="M166.593 225.466h-1.507v11.778h1.507v-11.778z" fill="#fff" stroke="#626366" stroke-width=".27" stroke-linecap="round" stroke-linejoin="round"/><path d="M170.122 224.602h-3.968v13.507h3.968v-13.507z" fill="#fff" stroke="#626366" stroke-width=".27" stroke-linecap="round" stroke-linejoin="round"/><path d="M167.416 231.348a.714.714 0 00.435.675.715.715 0 00.788-.147.723.723 0 00.162-.786.72.72 0 00-1.385.258z" fill="#fff" stroke="#626366" stroke-width=".27" stroke-linecap="round" stroke-linejoin="round"/><path d="M169.846 251.322h-19.761v49.231h19.761v-49.231z" fill="#fff"/><path d="M169.67 251.498v48.869h-19.417v-48.869h19.417zm.343-.344h-20.109v49.575h20.109V251.15v.004z" fill="#626366"/><path d="M168.099 287.548c0-.149.027-.285.027-.452v-28.553s0-5.43-5.036-5.43h-6.244s-5.037 0-5.037 5.43v28.562s0 .167.028.452c0 .1-.028.19-.028.29 0 4.837 3.652 8.76 8.145 8.76 4.494 0 8.145-3.923 8.145-8.76 0-.095-.022-.186-.027-.281" fill="#fff"/><path d="M168.099 287.548c0-.149.027-.285.027-.452v-28.553s0-5.43-5.036-5.43h-6.244s-5.037 0-5.037 5.43v28.562s0 .167.028.452c0 .1-.028.19-.028.29 0 4.837 3.652 8.76 8.145 8.76 4.494 0 8.145-3.923 8.145-8.76.023-.118 0-.204 0-.299z" stroke="#626366" stroke-width=".27"/><path d="M160.909 257.109a1.167 1.167 0 01-.73 1.061 1.158 1.158 0 01-1.261-.263 1.17 1.17 0 01-.245-1.265 1.163 1.163 0 011.521-.621 1.163 1.163 0 01.629.639c.058.142.087.295.086.449z" fill="#fff"/><path d="M160.909 257.109a1.167 1.167 0 01-.73 1.061 1.158 1.158 0 01-1.261-.263 1.17 1.17 0 01-.245-1.265 1.163 1.163 0 011.521-.621 1.163 1.163 0 01.629.639c.058.142.087.295.086.449" stroke="#626366" stroke-width=".27"/><path d="M149.972 251.322h-26.53v10.801h26.53v-10.801z" fill="#fff"/><path d="M149.796 251.498v10.453h-26.182v-10.453h26.182zm.344-.344h-26.874v11.145h26.874V251.15v.004z" fill="#626366"/><path d="M129.343 252.765h14.724v4.299a9.56 9.56 0 01-7.362 3.465 9.555 9.555 0 01-7.362-3.465v-4.299z" fill="#fff" stroke="#626366" stroke-width=".27" stroke-linecap="round" stroke-linejoin="round"/><path d="M136.705 256.887a1.19 1.19 0 100-2.38 1.19 1.19 0 000 2.38z" fill="#fff" stroke="#626366" stroke-width=".27" stroke-linecap="round" stroke-linejoin="round"/><path d="M140.248 240.679H123.75v7.674h16.498v-7.674z" fill="#fff"/><path d="M140.076 240.851v7.33H123.94v-7.33h16.154-.018zm.362-.344h-16.86v8.036h16.846v-8.036h.014z" fill="#626366"/><path d="M137.297 247.367h-10.593v-3.095a6.871 6.871 0 0110.593 0v3.095z" fill="#fff" stroke="#626366" stroke-width=".27" stroke-linecap="round" stroke-linejoin="round"/><path d="M131.999 246.109a.855.855 0 100-1.71.855.855 0 000 1.71z" fill="#fff" stroke="#626366" stroke-width=".27" stroke-linecap="round" stroke-linejoin="round"/><path d="M137.438 282.195h-10.394v1.299h10.394v-1.299z" fill="#fff" stroke="#626366" stroke-width=".27" stroke-linejoin="round"/><path d="M140.723 283.512H123.75v16.973h16.973v-16.973z" fill="#fff"/><path d="M140.551 283.684v16.629H123.94v-16.629h16.629-.018zm.362-.344h-17.335v17.321h17.321V283.34h.014z" fill="#626366"/><path d="M36.662 14.604a3.666 3.666 0 001.81.512c1.407 0 1.841-.905 1.81-1.57 0-1.132-1.037-1.62-2.091-1.62h-.61v-.824h.61c.796 0 1.81-.412 1.81-1.358 0-.647-.412-1.221-1.42-1.221a2.977 2.977 0 00-1.62.534l-.286-.797a3.851 3.851 0 012.118-.624c1.593 0 2.317.945 2.317 1.932a2.01 2.01 0 01-1.494 1.905v.022a2.109 2.109 0 011.81 2.082c0 1.294-1.009 2.43-2.95 2.43a4.118 4.118 0 01-2.104-.548l.29-.855zm6.217.597a.736.736 0 01.747-.783.729.729 0 01.733.783.73.73 0 01-.747.783.734.734 0 01-.733-.783zm4.869-6.429h-.023l-1.407.76-.213-.833 1.77-.946h.95v8.095h-1.06V8.776l-.017-.004zm8.842-.1H53.5l-.313 2.081c.219-.033.44-.05.66-.05a3.434 3.434 0 011.743.453 2.308 2.308 0 011.158 2.082c0 1.583-1.258 2.764-3.014 2.764a3.968 3.968 0 01-2.018-.497l.276-.833a3.62 3.62 0 001.733.452 1.809 1.809 0 001.919-1.755c0-1.046-.71-1.81-2.33-1.81a8.33 8.33 0 00-1.123.086l.525-3.887h3.874v.914zM41.78 26.659c0 2.75-1.023 4.271-2.815 4.271-1.584 0-2.652-1.484-2.679-4.158-.027-2.675 1.172-4.208 2.814-4.208 1.643 0 2.68 1.52 2.68 4.095zm-4.399.126c0 2.104.647 3.299 1.643 3.299 1.122 0 1.656-1.308 1.656-3.376 0-1.99-.512-3.298-1.643-3.298-.955 0-1.651 1.149-1.651 3.375h-.005zm5.498 3.362a.735.735 0 01.747-.782.729.729 0 01.733.782.73.73 0 01-.747.783.732.732 0 01-.733-.783zm3.127-.122c.302.018.605.006.905-.036a3.055 3.055 0 001.692-.783 3.552 3.552 0 001.072-2.154h-.036a2.375 2.375 0 01-1.905.874 2.343 2.343 0 01-2.394-2.48 2.773 2.773 0 012.765-2.878c1.656 0 2.679 1.358 2.679 3.412 0 1.783-.597 3.027-1.394 3.8a4.073 4.073 0 01-2.353 1.082 5.112 5.112 0 01-1.009.064v-.905l-.022.004zm.398-4.656c0 1.01.61 1.72 1.556 1.72a1.81 1.81 0 001.593-.847.724.724 0 00.1-.398c0-1.38-.512-2.439-1.656-2.439-.933-.009-1.593.815-1.593 1.96v.004zm10.186-1.747H53.5l-.313 2.082c.219-.034.44-.05.66-.05a3.424 3.424 0 011.743.453 2.307 2.307 0 011.158 2.08c0 1.585-1.258 2.766-3.014 2.766a3.969 3.969 0 01-2.018-.498l.276-.833c.531.294 1.127.45 1.733.453a1.809 1.809 0 001.919-1.756c0-1.045-.71-1.81-2.33-1.81a8.33 8.33 0 00-1.123.086l.525-3.887h3.874v.915z" fill="#231F20"/><path d="M34.295 19.048h24.842" stroke="#231F20" stroke-width=".446" stroke-linecap="round" stroke-linejoin="round"/><path d="M108.935 388.816h-.023l-1.407.76-.213-.832 1.77-.946h.932v8.095h-1.059v-7.077zm4.271 5.815a3.666 3.666 0 001.81.511c1.408 0 1.842-.905 1.81-1.57 0-1.131-1.036-1.62-2.09-1.62h-.611v-.824h.611c.796 0 1.81-.411 1.81-1.357 0-.647-.412-1.222-1.421-1.222a2.975 2.975 0 00-1.62.534l-.285-.796a3.847 3.847 0 012.118-.625c1.592 0 2.316.946 2.316 1.933a2.012 2.012 0 01-1.493 1.905v.031a2.112 2.112 0 011.81 2.082c0 1.294-1.009 2.43-2.95 2.43a4.116 4.116 0 01-2.104-.548l.289-.864zm6.209.611a.725.725 0 01.202-.555.736.736 0 01.544-.228.787.787 0 11-.746.783zm5.882.647v-2.204h-3.76v-.724l3.62-5.168h1.186v5.032h1.131v.86h-1.131v2.204h-1.046zm0-3.064v-2.715c0-.422.012-.846.037-1.271h-.037a36.41 36.41 0 01-.674 1.194l-1.982 2.751v.023h2.656v.018zm3.62 2.294c.302.018.605.006.905-.036a3.05 3.05 0 001.692-.783 3.547 3.547 0 001.073-2.153h-.05a2.378 2.378 0 01-1.905.873 2.338 2.338 0 01-1.74-.716 2.355 2.355 0 01-.512-.813 2.37 2.37 0 01-.142-.951 2.764 2.764 0 01.772-2.026 2.768 2.768 0 011.993-.852c1.656 0 2.679 1.358 2.679 3.412 0 1.783-.597 3.027-1.394 3.801a4.074 4.074 0 01-2.353 1.082 5.16 5.16 0 01-1.009.063v-.905l-.009.004zm.398-4.656c0 1.009.611 1.72 1.557 1.72a1.809 1.809 0 001.593-.846.725.725 0 00.099-.399c0-1.38-.511-2.439-1.656-2.439-.909-.009-1.57.815-1.57 1.96l-.023.004zM125.962 277.1v-.674l.86-.833c2.068-1.968 3-3.013 3.014-4.235a1.451 1.451 0 00-.422-1.178 1.45 1.45 0 00-1.185-.406 2.757 2.757 0 00-1.719.683l-.349-.773a3.55 3.55 0 012.295-.824c1.742 0 2.479 1.195 2.479 2.353 0 1.493-1.081 2.715-2.792 4.349l-.647.597v.022h3.62v.905h-5.167l.013.014zm6.48-.647a.738.738 0 01.747-.783.783.783 0 01.756.458.784.784 0 01-.146.872.781.781 0 01-.864.187.794.794 0 01-.493-.734zm3.127-.122c.302.018.605.006.905-.036a3.056 3.056 0 001.692-.783 3.547 3.547 0 001.073-2.154h-.036a2.371 2.371 0 01-1.905.873 2.334 2.334 0 01-1.741-.715 2.347 2.347 0 01-.653-1.764 2.766 2.766 0 01.771-2.026 2.767 2.767 0 011.994-.852c1.656 0 2.678 1.357 2.678 3.412 0 1.782-.597 3.027-1.393 3.801a4.08 4.08 0 01-2.353 1.081 5.093 5.093 0 01-1.009.063v-.905l-.023.005zm.398-4.656c0 1.009.611 1.719 1.557 1.719a1.808 1.808 0 001.593-.846.722.722 0 00.099-.398c0-1.38-.511-2.439-1.656-2.439-.95-.009-1.593.814-1.593 1.959v.005zm5.353 5.425v-.674l.86-.833c2.068-1.968 3-3.013 3.014-4.235a1.451 1.451 0 00-.423-1.178 1.438 1.438 0 00-1.184-.406 2.755 2.755 0 00-1.719.683l-.349-.773a3.55 3.55 0 012.295-.824c1.742 0 2.479 1.195 2.479 2.353 0 1.493-1.081 2.715-2.792 4.349l-.647.583v.023h3.62v.905h-5.167l.013.027zm-62.436-58.955a3.984 3.984 0 00-.823.049 3.293 3.293 0 00-2.815 2.878h.036a2.407 2.407 0 011.955-.932c1.435 0 2.444 1.032 2.444 2.616 0 1.484-1.01 2.85-2.693 2.85s-2.864-1.357-2.864-3.448a5.09 5.09 0 011.358-3.651 4.41 4.41 0 012.592-1.195 5.32 5.32 0 01.797-.063v.905l.013-.009zm-.312 4.669c0-1.158-.66-1.855-1.67-1.855a1.819 1.819 0 00-1.57.996.925.925 0 00-.126.484c.022 1.335.633 2.317 1.782 2.317.95 0 1.584-.783 1.584-1.942zm2.168 2.005a.737.737 0 01.746-.783.786.786 0 01.817.916.786.786 0 01-1.564-.133zm3.126-.122c.302.018.606.006.905-.036a3.06 3.06 0 001.693-.783 3.553 3.553 0 001.072-2.154H87.5a2.365 2.365 0 01-1.905.873 2.336 2.336 0 01-1.74-.715 2.341 2.341 0 01-.654-1.764 2.777 2.777 0 011.682-2.655c.342-.146.71-.222 1.083-.223 1.656 0 2.679 1.357 2.679 3.412 0 1.782-.597 3.027-1.394 3.8a4.073 4.073 0 01-2.353 1.082 5.088 5.088 0 01-1.009.063v-.905l-.023.005zm.399-4.656c0 1.009.61 1.719 1.556 1.719a1.81 1.81 0 001.593-.846.724.724 0 00.1-.398c0-1.38-.512-2.439-1.657-2.439-.932-.009-1.592.814-1.592 1.959v.005zm10.19-1.747H91.36l-.313 2.081c.22-.033.44-.05.661-.049a3.421 3.421 0 011.742.452 2.308 2.308 0 011.159 2.082c0 1.583-1.258 2.764-3.014 2.764a3.964 3.964 0 01-2.018-.497l.276-.833c.53.294 1.127.449 1.733.452a1.803 1.803 0 001.755-1.053c.101-.221.157-.46.164-.702 0-1.045-.71-1.81-2.33-1.81a8.275 8.275 0 00-1.123.086l.525-3.887h3.873v.905l.005.009zm31.507 16.887v-.665l.86-.833c2.068-1.968 3-3.013 3.014-4.235a1.453 1.453 0 00-.422-1.178 1.45 1.45 0 00-1.185-.406 2.753 2.753 0 00-1.719.684l-.349-.774a3.556 3.556 0 012.295-.824c1.742 0 2.479 1.195 2.479 2.353 0 1.493-1.081 2.715-2.792 4.349l-.647.597v.023h3.62v.905h-5.167l.013.004zm6.48-.665a.743.743 0 01.451-.726.75.75 0 01.296-.057.783.783 0 01.756.458.784.784 0 01-.146.872.781.781 0 01-.864.187.79.79 0 01-.493-.734zm4.869-6.412h-.023l-1.407.76-.213-.832 1.77-.946h.932v8.095h-1.059v-7.077zm4.647 6.303c.302.018.605.006.905-.036a3.056 3.056 0 001.693-.783 3.551 3.551 0 001.072-2.154h-.036a2.371 2.371 0 01-1.905.874 2.351 2.351 0 01-2.252-1.529 2.353 2.353 0 01-.142-.951 2.764 2.764 0 01.772-2.026 2.786 2.786 0 011.993-.852c1.656 0 2.679 1.358 2.679 3.412 0 1.783-.598 3.027-1.394 3.801a4.067 4.067 0 01-2.353 1.081 5.094 5.094 0 01-1.009.064v-.905l-.023.004zm.398-4.656c0 1.009.611 1.72 1.557 1.72a1.809 1.809 0 001.593-.847.72.72 0 00.099-.398c0-1.38-.511-2.439-1.656-2.439-.932-.004-1.593.815-1.593 1.964zm-33.512-91.299h-.022l-1.407.76-.213-.833 1.769-.945h.941v8.095h-1.058v-7.077h-.01zm8.842-.1h-3.09l-.313 2.081c.219-.033.44-.049.661-.049a3.43 3.43 0 011.742.452 2.31 2.31 0 011.159 2.082c0 1.583-1.258 2.764-3.014 2.764a3.962 3.962 0 01-2.018-.497l.276-.833a3.62 3.62 0 001.733.453 1.818 1.818 0 001.755-1.054c.101-.221.157-.46.163-.702 0-1.045-.71-1.81-2.33-1.81a8.26 8.26 0 00-1.122.086l.525-3.887h3.873v.914zm1.647 6.525a.738.738 0 01.747-.783.785.785 0 01.817.916.785.785 0 01-1.071.601.79.79 0 01-.493-.734zm7.322-6.525h-3.091l-.312 2.081c.219-.033.439-.049.661-.049a3.432 3.432 0 011.742.452 2.307 2.307 0 011.158 2.082c0 1.583-1.258 2.764-3.014 2.764a3.965 3.965 0 01-2.018-.497l.276-.833a3.627 3.627 0 001.733.453 1.823 1.823 0 001.332-.472 1.818 1.818 0 00.587-1.284c0-1.045-.71-1.81-2.33-1.81a8.275 8.275 0 00-1.123.086l.525-3.887h3.874v.914zm4.946 7.177v-2.204h-3.761v-.724l3.62-5.167h1.186v5.031h1.131v.86h-1.131v2.204h-1.045zm0-3.064v-2.715c0-.422.012-.846.036-1.271h-.036c-.249.452-.453.823-.675 1.194l-1.982 2.752v.022h2.652l.005.018zm-97.84-74.566h-.023l-1.407.76-.213-.833 1.77-.945h.932v8.095h-1.06v-7.077zm8.842-.099h-3.09l-.313 2.08c.219-.033.44-.05.66-.049a3.425 3.425 0 011.743.453 2.307 2.307 0 011.158 2.08c0 1.585-1.258 2.766-3.013 2.766a3.968 3.968 0 01-2.018-.498l.276-.833a3.61 3.61 0 001.733.453 1.809 1.809 0 001.918-1.756c0-1.045-.71-1.81-2.33-1.81a8.33 8.33 0 00-1.122.086l.525-3.887h3.873v.915zm1.647 6.533a.739.739 0 01.747-.783.787.787 0 11-.747.783zm2.765-.615a3.666 3.666 0 001.81.511c1.407 0 1.841-.905 1.81-1.57 0-1.131-1.036-1.62-2.09-1.62h-.625v-.823h.61c.797 0 1.81-.412 1.81-1.358 0-.647-.411-1.222-1.42-1.222a2.977 2.977 0 00-1.62.534l-.285-.805a3.851 3.851 0 012.117-.624c1.593 0 2.317.945 2.317 1.932a2.009 2.009 0 01-1.493 1.905v.022a2.108 2.108 0 011.81 2.082c0 1.294-1.01 2.43-2.95 2.43a4.118 4.118 0 01-2.105-.548l.304-.846zm6.375 0a3.665 3.665 0 001.81.511c1.408 0 1.842-.905 1.81-1.57 0-1.131-1.036-1.62-2.09-1.62h-.611v-.823h.61c.797 0 1.81-.412 1.81-1.358 0-.647-.41-1.222-1.42-1.222a2.977 2.977 0 00-1.62.534l-.285-.796a3.85 3.85 0 012.118-.624c1.593 0 2.317.945 2.317 1.932a2.008 2.008 0 01-1.494 1.905v.022a2.108 2.108 0 011.81 2.082c0 1.294-1.009 2.43-2.95 2.43a4.118 4.118 0 01-2.104-.548l.29-.855z" fill="#231F20"/><path d="M120.062 374.404a18.923 18.923 0 0018.555-22.61 18.91 18.91 0 00-14.864-14.864 18.919 18.919 0 10-3.691 37.474z" fill="#fff"/><path d="M120.062 374.4c10.449 0 18.919-8.47 18.919-18.919s-8.47-18.919-18.919-18.919-18.919 8.47-18.919 18.919 8.47 18.919 18.919 18.919z" stroke="#231F20" stroke-width="1.079" stroke-miterlimit="10"/><path d="M110.423 351.436h-3.434l-.348 2.312c.242-.037.487-.055.733-.054a3.79 3.79 0 011.936.484c.404.232.737.57.964.977.226.408.337.869.321 1.335 0 1.756-1.398 3.072-3.348 3.072a4.396 4.396 0 01-2.263-.552l.304-.905c.589.324 1.25.495 1.923.498 1.149 0 2.131-.747 2.131-1.95 0-1.204-.787-1.996-2.588-1.996a9.421 9.421 0 00-1.245.095l.584-4.316h4.303v1.022l.027-.022zm7.575-1.028v.801l-3.918 8.195h-1.258l3.905-7.959v-.028h-4.403v-1.009h5.674zm1.353 8.281a.822.822 0 01.833-.873.875.875 0 01.673 1.475.872.872 0 01-1.355-.113.876.876 0 01-.151-.489zm3.059-.679a4.068 4.068 0 001.996.566c1.565 0 2.05-.995 2.036-1.742 0-1.258-1.149-1.81-2.326-1.81h-.679v-.905h.679c.905 0 2.009-.452 2.009-1.525 0-.719-.452-1.357-1.579-1.357a3.301 3.301 0 00-1.81.597l-.317-.905a4.273 4.273 0 012.353-.692c1.774 0 2.575 1.054 2.575 2.144 0 .905-.552 1.715-1.661 2.118v.027a2.346 2.346 0 012.01 2.313c0 1.438-1.123 2.714-3.281 2.714a4.561 4.561 0 01-2.34-.61l.335-.933zm12.652-7.602v.801l-3.919 8.195h-1.258l3.906-7.959v-.028h-4.421v-1.009h5.692z" fill="#231F20"/></g><defs><clipPath id="clip0"><path fill="#fff" d="M0 0h181v453H0z"/></clipPath></defs></svg>