<svg width="165" height="240" fill="none" xmlns="http://www.w3.org/2000/svg"><g clip-path="url(#clip0)"><path d="M145.786 224.396h-49.88v12.552h49.88v-12.552z" fill="#fff"/><path d="M145.6 224.586v12.176H96.1v-12.176h49.5zm.375-.376H95.721v12.927h50.254V224.21z" fill="#D4463D"/><path d="M145.786 229.338h-49.88v2.667h49.88v-2.667z" fill="#fff"/><path d="M145.6 229.528v2.292H96.1v-2.292h49.5zm.375-.375H95.721v3.038h50.254v-3.038z" fill="#D4463D"/><path d="M64.532 194.47l-14.875-17.003m53.221-95.313l-16.286 19.258m-15.46-57.09l12.655 16.6m21.504-39.757L83.787.748" stroke="#585852" stroke-width="1.279" stroke-miterlimit="10" stroke-linecap="round"/><path d="M83.478 232.22v-33.838H72.95v33.838h10.527z" fill="#D4463D"/><path d="M72.947 237.137h23.038v-12.926H72.947v12.926zm73.024 0h18.414v-12.926h-18.414v12.926zm-81.435-36.702h18.942v-12.927H64.536v12.927zm-64.536 0h42.834v-12.927H0v12.927zM72.192 64.549h-2.838v52.518h2.838V64.549zm0-41.938h-2.838v21.707h2.838V22.61zm41.699 0h-5.717v20.03h5.717V22.61z" fill="#D4463D"/><path d="M78.38 83.576V80.74h-7.607v2.836h7.606zm82.92-.004v-2.836h-58.422v2.836H161.3zM70.79 97.937v-2.836H3.794v2.836h66.994z" fill="#D4463D"/><path d="M41.18 96.519v-5.713H3.795v5.713H41.18zm0-14.349v-2.452H3.795v2.452H41.18zm34.815-58.404v-5.202H1.877v5.202h74.118zm37.9-.001v-5.201h-8.6v5.201h8.6zM165 42.64v-5.202h-56.343v5.202H165zM.57 239.384h4.364V198.18H.569v41.204z" fill="#D4463D"/><path d="M.004 197.71h5.874V18.564H.004V197.71zm159.122 39.427H165V40.802h-5.874v196.335zm-82.554 0H.569v2.861h76.003v-2.861zM68.611 80.468v13.891H41.766V80.468H68.61zm.747-.746H41.015v15.387h28.343V79.718v.004z" fill="#D4463D"/><path d="M62.75 81.675H47.614v11.468h15.134V81.675zm-17.045 0h-2.929v11.468h2.93V81.675zm21.887 0h-2.928v11.468h2.928V81.675z" stroke="#D4463D" stroke-width=".64" stroke-linecap="round" stroke-linejoin="round"/><path d="M24.837 98.123H6.064v89.2h18.773v-89.2z" fill="#fff"/><path d="M24.651 98.312v88.825H6.253V98.312h18.398zm.375-.375H5.878v89.571h19.148v-89.58.009z" fill="#626366"/><path d="M58.76 98.123H6.065v18.759H58.76v-18.76z" fill="#fff"/><path d="M58.563 98.312v18.384H6.249V98.312h52.314zm.375-.375H5.878v19.134H58.95V97.929l-.012.008z" fill="#626366"/><path d="M24.837 141.045H6.064v18.759h18.773v-18.759z" fill="#fff"/><path d="M24.651 141.23v18.384H6.253V141.23h18.398zm.375-.375H5.878v19.135h19.148v-19.135z" fill="#626366"/><path d="M19.878 149.652a3.456 3.456 0 01-3.19-2.13 3.45 3.45 0 014.512-4.508 3.448 3.448 0 011.119 5.626 3.457 3.457 0 01-2.44 1.012z" fill="#fff"/><path d="M19.878 149.652a3.456 3.456 0 01-3.19-2.13 3.45 3.45 0 014.512-4.508 3.448 3.448 0 011.119 5.626 3.457 3.457 0 01-2.44 1.012m3.283-6.732l-6.567 6.559m0-6.559l6.567 6.559" stroke="#626366" stroke-width=".32" stroke-linecap="round"/><path d="M11.022 149.652a3.456 3.456 0 01-3.19-2.13 3.45 3.45 0 014.511-4.508 3.448 3.448 0 011.12 5.626 3.457 3.457 0 01-2.441 1.012z" fill="#fff"/><path d="M11.022 149.652a3.456 3.456 0 01-3.19-2.13 3.45 3.45 0 014.511-4.508 3.448 3.448 0 011.12 5.626 3.457 3.457 0 01-2.441 1.012m3.279-6.732l-6.562 6.559m0-6.559l6.562 6.559" stroke="#626366" stroke-width=".32" stroke-linecap="round"/><path d="M19.878 158.11a3.455 3.455 0 01-3.19-2.13 3.447 3.447 0 012.517-4.704 3.457 3.457 0 013.544 1.467 3.446 3.446 0 01-.43 4.355 3.457 3.457 0 01-2.44 1.012z" fill="#fff"/><path d="M19.878 158.11a3.455 3.455 0 01-3.19-2.13 3.447 3.447 0 012.517-4.704 3.457 3.457 0 013.544 1.467 3.446 3.446 0 01-.43 4.355 3.457 3.457 0 01-2.44 1.012m3.283-6.744l-6.567 6.559m0-6.559l6.567 6.559" stroke="#626366" stroke-width=".32" stroke-linecap="round"/><path d="M11.022 158.11a3.455 3.455 0 01-3.19-2.13 3.446 3.446 0 01.749-3.76 3.456 3.456 0 015.312.523 3.446 3.446 0 01-.43 4.355 3.457 3.457 0 01-2.441 1.012z" fill="#fff"/><path d="M11.022 158.11a3.455 3.455 0 01-3.19-2.13 3.446 3.446 0 01.749-3.76 3.456 3.456 0 015.312.523 3.446 3.446 0 01-.43 4.355 3.457 3.457 0 01-2.441 1.012m3.279-6.744l-6.562 6.559m0-6.559l6.562 6.559" stroke="#626366" stroke-width=".32" stroke-linecap="round"/><path d="M69.168 98.123H50.395v18.759h18.773v-18.76z" fill="#fff"/><path d="M68.982 98.312v18.384H50.585V98.312h18.397zm.376-.375H50.209v19.134h19.149V97.929v.008z" fill="#626366"/><path d="M63.067 104.223l-6.567 6.558m0-6.558l6.563 6.558m-3.279 1.348v-9.25m-4.629 4.625h9.257" stroke="#626366" stroke-width=".32" stroke-linecap="round"/><path d="M24.837 98.123H6.064v18.759h18.773v-18.76z" fill="#fff"/><path d="M24.651 98.312v18.384H6.253V98.312h18.398zm.375-.375H5.878v19.134h19.148V97.929v.008z" fill="#626366"/><path d="M12.618 114.99c-.086 0-2.14-.033-2.14-2.14v-5.981c0-.086.033-2.139 2.14-2.139h8.617c.087 0 2.141.033 2.141 2.139v5.981c0 .087-.033 2.14-2.14 2.14h-8.618z" fill="#fff"/><path d="M21.235 104.916c.079 0 1.956.02 1.956 1.953v5.981c0 .079-.02 1.954-1.956 1.954h-8.617c-.078 0-1.955-.02-1.955-1.954v-5.981c0-.078.02-1.953 1.955-1.953h8.617zm0-.375h-8.617c-2.33 0-2.33 2.328-2.33 2.328v5.981c0 2.329 2.33 2.329 2.33 2.329h8.617c2.331 0 2.331-2.329 2.331-2.329v-5.981c0-2.328-2.33-2.328-2.33-2.328z" fill="#626366"/><path d="M14.079 106.948a.698.698 0 01-.833.696.699.699 0 01-.517-.954.697.697 0 01.648-.435.699.699 0 01.702.693z" fill="#fff" stroke="#626366" stroke-width=".32"/><path d="M159.126 83.572h-5.705v74.517h5.705V83.572zm-5.705 5.696v-5.696h-36.787v5.696h36.787zm-32.22 0h-4.567v15.936h4.567V89.268zm32.208 64.394h-15.948v4.427h15.948v-4.427z" fill="#fff" stroke="#626366" stroke-width=".32" stroke-linejoin="round"/><path d="M137.313 152.026s0 1.649 1.65 1.649h12.825s1.65 0 1.65-1.649v-12.824s0-1.649-1.65-1.649h-12.833s-1.65 0-1.65 1.649v12.824h.008z" fill="#fff" stroke="#626366" stroke-width=".32" stroke-linejoin="round"/><path d="M137.313 135.929s0 1.649 1.65 1.649h12.825s1.65 0 1.65-1.649v-12.823s0-1.649-1.65-1.649h-12.833s-1.65 0-1.65 1.649v12.823h.008z" fill="#fff" stroke="#626366" stroke-width=".32" stroke-linejoin="round"/><path d="M137.313 119.829s0 1.649 1.65 1.649h12.825s1.65 0 1.65-1.649v-12.832s0-1.649-1.65-1.649h-12.833s-1.65 0-1.65 1.649v12.824l.008.008z" fill="#fff" stroke="#626366" stroke-width=".32" stroke-linejoin="round"/><path d="M151.788 105.369s1.65 0 1.65-1.649V90.921s0-1.649-1.65-1.649h-12.833s-1.65 0-1.65 1.65v12.823s0 1.649 1.65 1.649h12.833v-.025z" fill="#fff" stroke="#626366" stroke-width=".32" stroke-linejoin="round"/><path d="M135.675 105.369s1.65 0 1.65-1.649V90.921s0-1.649-1.65-1.649h-12.832s-1.65 0-1.65 1.65v12.823s0 1.649 1.65 1.649h12.832v-.025z" fill="#fff" stroke="#626366" stroke-width=".32" stroke-linejoin="round"/><path d="M158.936 64.318h-55.873V80.55h55.873V64.318z" fill="#fff"/><path d="M158.751 64.507v15.858h-55.498V64.507h55.502-.004zm.379-.375h-56.253V80.74h56.249V64.128l.004.004z" fill="#626366"/><path d="M140.753 74.487s.046 1.142-1.307 1.236c-1.353.095-1.325-1.327-1.217-1.694.284-.948 1.262-.742 1.262-1.187 0-.445.029-1.13.029-1.13" stroke="#626366" stroke-width=".32" stroke-linecap="round" stroke-linejoin="round"/><path d="M132.833 69.165c.277 1.575 3.123 2.816 6.633 2.816 3.511 0 6.353-1.237 6.633-2.816h-13.266zm-9.009 5.322s.046 1.142-1.307 1.236c-1.353.095-1.325-1.327-1.217-1.694.284-.948 1.262-.742 1.262-1.187 0-.445.029-1.13.029-1.13" stroke="#626366" stroke-width=".32" stroke-linecap="round" stroke-linejoin="round"/><path d="M115.9 69.165c.276 1.575 3.123 2.816 6.633 2.816 3.511 0 6.353-1.237 6.633-2.816H115.9z" stroke="#626366" stroke-width=".32" stroke-linecap="round" stroke-linejoin="round"/><path d="M123.7 202.38s-2.404 0-2.404 2.404v8.47s0 2.403 2.404 2.403h8.737s2.405 0 2.405-2.403v-8.47s0-2.404-2.405-2.404H123.7z" fill="#fff" stroke="#626366" stroke-width=".32"/><path d="M120.351 201.391a62.147 62.147 0 00-.743 7.568c.014 2.54.263 5.074.743 7.568h2.203a32.447 32.447 0 01-.825-7.568c.061-2.541.337-5.073.825-7.568h-2.203zm30.797-14.971s0-2.403-2.405-2.403h-8.476s-2.405 0-2.405 2.403v8.73s0 2.404 2.405 2.404h8.476s2.405 0 2.405-2.404v-8.73z" fill="#fff" stroke="#626366" stroke-width=".32"/><path d="M152.134 183.073a62.226 62.226 0 00-7.573-.742 41.228 41.228 0 00-7.574.742v2.201a32.551 32.551 0 017.574-.824c2.543.061 5.076.337 7.573.824v-2.201zm-21.932 38.734s0 2.403 2.404 2.403h24.132s2.405 0 2.405-2.403v-25.688s0-2.403-2.405-2.403h-24.132s-2.404 0-2.404 2.403v25.688zM27.708 67.014c0-4.027-4.6-7.296-10.272-7.296-5.671 0-10.271 3.264-10.271 7.296 0 4.031 4.6 7.296 10.271 7.296 5.672 0 10.272-3.265 10.272-7.296z" fill="#fff" stroke="#626366" stroke-width=".32"/><path d="M11.422 60.666h-1.63v12.72h1.63v-12.72z" fill="#fff" stroke="#626366" stroke-width=".32" stroke-linecap="round" stroke-linejoin="round"/><path d="M10.267 59.73H5.981v14.592h4.286V59.73z" fill="#fff" stroke="#626366" stroke-width=".32" stroke-linecap="round" stroke-linejoin="round"/><path d="M8.906 67.014a.774.774 0 00-1.32-.565.775.775 0 00.544 1.327.772.772 0 00.776-.762z" fill="#fff" stroke="#626366" stroke-width=".32" stroke-linecap="round" stroke-linejoin="round"/><path d="M6.064 54.949V23.955H37.08v14.448L20.518 54.949H6.064z" fill="#fff"/><path d="M36.894 24.145v14.18l-16.45 16.438H6.248V24.145h30.645zm.371-.375H5.874v31.368h14.739l16.669-16.657V23.77h-.017z" fill="#626366"/><path d="M35.623 25.41H7.517v28.083h12.19l15.918-15.902V25.41z" fill="#fff"/><path d="M35.623 25.41H7.517v28.083h12.19l15.918-15.902V25.41z" stroke="#626366" stroke-width=".32" stroke-linecap="round" stroke-linejoin="round"/><path d="M12.775 31.927a1.346 1.346 0 001.319-1.606 1.343 1.343 0 00-2.437-.484 1.343 1.343 0 001.118 2.09z" fill="#fff"/><path d="M12.775 31.927a1.346 1.346 0 001.319-1.606 1.343 1.343 0 00-2.437-.484 1.343 1.343 0 001.118 2.09" stroke="#626366" stroke-width=".32"/><path d="M69.168 67.962H44.236v11.665h24.932V67.962z" fill="#fff"/><path d="M68.982 68.151v11.29H44.426v-11.29h24.556zm.376-.375H44.05v12.04h25.307v-12.04z" fill="#626366"/><path d="M64.663 78.073H48.745v-4.641a10.313 10.313 0 0112.356-2.766 10.312 10.312 0 013.558 2.766v4.64h.004z" fill="#fff" stroke="#626366" stroke-width=".32" stroke-linecap="round" stroke-linejoin="round"/><path d="M56.702 76.19a1.287 1.287 0 10.001-2.574 1.287 1.287 0 000 2.573z" fill="#fff" stroke="#626366" stroke-width=".32" stroke-linecap="round" stroke-linejoin="round"/><path d="M65.608 42.31H54.376v1.402h11.232V42.31z" fill="#fff" stroke="#626366" stroke-width=".32" stroke-linejoin="round"/><path d="M69.168 23.955H50.82V42.29h18.348V23.955z" fill="#fff"/><path d="M68.982 24.145v17.96H51.01v-17.96h17.972zm.376-.375H50.634v18.705h18.724V23.77z" fill="#626366"/><path d="M29.923 215.851v-.725l.928-.903c2.236-2.127 3.246-3.257 3.259-4.576 0-.886-.413-1.71-1.737-1.71a2.98 2.98 0 00-1.856.738l-.376-.825a3.842 3.842 0 012.475-.886c1.886 0 2.682 1.29 2.682 2.543 0 1.616-1.172 2.919-3.016 4.695l-.701.647v.029h3.931v.981h-5.585l-.004-.008zm7.004-.701a.797.797 0 01.825-.849.852.852 0 01.861.999.845.845 0 01-.661.681.853.853 0 01-.88-.357.848.848 0 01-.145-.474zm6.373.701v-2.382h-4.067v-.779l3.906-5.582h1.279v5.437h1.237v.928h-1.237v2.382H43.3v-.004zm0-3.297v-2.919c0-.459.014-.916.041-1.372h-.04c-.269.511-.483.886-.727 1.29l-2.161 2.968v.028H43.3v.005zm8.906-5.446v.779l-3.811 7.964h-1.238l3.795-7.737v-.025H46.67v-.981h5.536zm-19.709 17.247h-.03l-1.521.824-.227-.903 1.91-1.022h1.01v8.743h-1.142v-7.642zm4.43 6.941a.797.797 0 01.825-.849.852.852 0 01.861.999.845.845 0 01-.661.681.853.853 0 01-.88-.357.848.848 0 01-.145-.474zm2.693.701v-.726l.929-.902c2.236-2.127 3.246-3.257 3.258-4.576 0-.886-.412-1.71-1.736-1.71a2.98 2.98 0 00-1.856.738l-.376-.825a3.842 3.842 0 012.475-.886c1.886 0 2.682 1.29 2.682 2.543 0 1.616-1.172 2.919-3.016 4.695l-.701.647v.029h3.931v.981h-5.585l-.004-.008zm10.569 0v-2.383h-4.067v-.779l3.906-5.581h1.279v5.437h1.237v.928h-1.237v2.382h-1.118v-.004zm0-3.298v-2.918c0-.459.014-.916.041-1.373h-.041c-.268.511-.483.887-.726 1.29l-2.141 2.972v.029h2.887-.02z" fill="#231F20"/><path d="M27.646 219.305h26.853" stroke="#231F20" stroke-width=".529" stroke-linecap="round" stroke-linejoin="round"/><path d="M121.122 59.182v-2.383h-4.067v-.779l3.906-5.58h1.279v5.444h1.238v.928h-1.238v2.37h-1.118zm0-3.298v-2.918c0-.459.014-.916.042-1.373h-.042c-.268.511-.482.887-.726 1.29l-2.141 2.972v.03h2.888-.021zm3.337 2.593a.803.803 0 01.825-.85.85.85 0 11-.825.85zm2.991-.66a3.964 3.964 0 001.939.553c1.522 0 1.992-.969 1.98-1.694 0-1.237-1.118-1.748-2.261-1.748h-.66v-.886h.66c.863 0 1.952-.446 1.952-1.48 0-.7-.446-1.32-1.535-1.32a3.219 3.219 0 00-1.749.578l-.326-.882a4.165 4.165 0 012.29-.672c1.724 0 2.503 1.022 2.503 2.086 0 .902-.536 1.649-1.617 2.06v.03a2.281 2.281 0 011.951 2.246c0 1.397-1.089 2.626-3.192 2.626a4.449 4.449 0 01-2.277-.594l.342-.903zm6.6 1.365v-.726l.928-.902c2.236-2.127 3.247-3.257 3.259-4.576 0-.886-.413-1.71-1.737-1.71a2.985 2.985 0 00-1.856.737l-.375-.824a3.842 3.842 0 012.475-.886c1.885 0 2.681 1.29 2.681 2.543 0 1.616-1.172 2.918-3.015 4.695l-.702.647v.029h3.931v.973h-5.589zm-92.272.185v-2.382h-4.067v-.78l3.906-5.58h1.279v5.436h1.237v.928h-1.237v2.382h-1.118v-.004zm0-3.297v-2.92c0-.459.014-.916.041-1.372h-.041c-.268.51-.483.886-.726 1.29l-2.14 2.972v.029h2.887-.021zm3.337 2.597a.794.794 0 01.825-.85.851.851 0 01.861 1 .85.85 0 01-1.686-.15zm2.694.7v-.725l.928-.903c2.236-2.127 3.246-3.256 3.259-4.575 0-.886-.413-1.71-1.737-1.71a2.983 2.983 0 00-1.856.737l-.376-.825a3.842 3.842 0 012.475-.886c1.886 0 2.682 1.29 2.682 2.544 0 1.615-1.172 2.918-3.016 4.694l-.701.648v.029h3.931v.98h-5.585l-.004-.008zm6.798-2.221c0-1.105.66-1.884 1.736-2.342v-.04a2.17 2.17 0 01-1.386-1.967c0-1.385 1.172-2.329 2.706-2.329 1.696 0 2.546 1.063 2.546 2.152 0 .738-.364 1.533-1.44 2.06v.042c1.089.412 1.765 1.2 1.765 2.259 0 1.52-1.307 2.543-2.974 2.543-1.848-.008-2.953-1.1-2.953-2.378zm4.71-.054c0-1.063-.738-1.575-1.926-1.908-1.023.296-1.576.968-1.576 1.8a1.614 1.614 0 001.75 1.65c1.068.02 1.757-.64 1.757-1.542h-.005zM56.06 52.72c0 .873.66 1.343 1.65 1.615.755-.255 1.332-.795 1.332-1.587a1.36 1.36 0 00-1.48-1.426 1.39 1.39 0 00-1.498 1.398h-.004zm-11.935 96h-.029l-1.522.825-.227-.903 1.91-1.022h1.01v8.742h-1.142v-7.642zm5.012 6.806c.32.017.64.003.957-.042a3.304 3.304 0 001.831-.849 3.836 3.836 0 001.16-2.329h-.041a2.556 2.556 0 01-2.063.944 2.54 2.54 0 01-2.432-1.653 2.532 2.532 0 01-.154-1.026 2.994 2.994 0 011.819-2.867c.37-.158.769-.24 1.171-.241 1.79 0 2.888 1.455 2.888 3.685 0 1.925-.648 3.269-1.51 4.122a4.374 4.374 0 01-2.545 1.171c-.36.058-.725.08-1.09.066v-.969l.009-.012zm.413-5.033c0 1.088.66 1.854 1.683 1.854a1.96 1.96 0 001.724-.915.78.78 0 00.107-.412c0-1.492-.553-2.638-1.79-2.638-.994-.012-1.708.874-1.708 2.115l-.017-.004zm5.902 5.168a.79.79 0 01.499-.792.794.794 0 01.326-.057.852.852 0 01.861.999.851.851 0 01-1.155.637.847.847 0 01-.53-.787zm5.264-6.941h-.03l-1.521.825-.227-.903 1.91-1.022h1.015v8.742H60.72v-7.642h-.004zm4.335 7.642v-.725l.928-.903c2.236-2.127 3.247-3.256 3.26-4.575 0-.887-.413-1.711-1.738-1.711a2.981 2.981 0 00-1.856.738l-.375-.825a3.842 3.842 0 012.475-.886c1.885 0 2.681 1.29 2.681 2.543 0 1.616-1.171 2.919-3.015 4.695l-.701.648v.028h3.93v.981h-5.585l-.004-.008z" fill="#231F20"/><path d="M105.294 172.846c4.044 0 7.998-1.198 11.36-3.443a20.432 20.432 0 008.695-20.976 20.437 20.437 0 00-16.066-16.054 20.45 20.45 0 00-20.99 8.689 20.42 20.42 0 002.544 25.798 20.457 20.457 0 0014.457 5.986z" fill="#fff"/><path d="M105.291 172.846c11.293 0 20.447-9.148 20.447-20.433 0-11.284-9.154-20.432-20.447-20.432s-20.448 9.148-20.448 20.432c0 11.285 9.155 20.433 20.448 20.433z" stroke="#231F20" stroke-width="1.279" stroke-miterlimit="10"/><path d="M89.088 156.651v-.825l1.03-1.001c2.476-2.362 3.606-3.619 3.623-5.083 0-.985-.479-1.9-1.93-1.9a3.304 3.304 0 00-2.063.825l-.413-.928a4.265 4.265 0 012.752-.985c2.095 0 2.978 1.434 2.978 2.828 0 1.793-1.304 3.244-3.35 5.218l-.78.717v.029h4.34v1.093h-6.187v.012zm7.536-2.469c0-1.237.734-2.094 1.93-2.601v-.045a2.409 2.409 0 01-1.542-2.185c0-1.542 1.303-2.585 3.007-2.585 1.885 0 2.83 1.183 2.83 2.391 0 .825-.413 1.703-1.601 2.271v.046c1.213.478 1.959 1.331 1.959 2.51 0 1.69-1.452 2.828-3.3 2.828-2.054.004-3.283-1.208-3.283-2.63zm5.235-.062c0-1.183-.825-1.748-2.141-2.123-1.139.33-1.75 1.076-1.75 2.003 0 .928.702 1.855 1.944 1.855 1.241 0 1.963-.729 1.963-1.731l-.016-.004zm-3.622-4.86c0 .973.734 1.496 1.856 1.793.825-.284 1.481-.882 1.481-1.764a1.51 1.51 0 00-1.012-1.504 1.502 1.502 0 00-.638-.079 1.546 1.546 0 00-1.683 1.558l-.004-.004zm6.286 6.612a.89.89 0 01.542-.877.877.877 0 01.358-.067.944.944 0 11-.9.944zm3.758-.149c.354.02.709.004 1.06-.045a3.673 3.673 0 002.034-.944 4.267 4.267 0 001.287-2.584h-.062a2.85 2.85 0 01-2.289 1.047c-1.749 0-2.888-1.315-2.888-2.976a3.332 3.332 0 013.321-3.455c1.988 0 3.217 1.616 3.217 4.098 0 2.139-.717 3.631-1.674 4.559a4.863 4.863 0 01-2.826 1.302c-.401.065-.807.09-1.213.074v-1.076h.033zm.479-5.589c0 1.212.734 2.061 1.868 2.061a2.176 2.176 0 001.914-1.018.874.874 0 00.12-.478c0-1.649-.615-2.931-1.988-2.931-1.122 0-1.914.989-1.914 2.362v.004zm11.983-2.276a4.86 4.86 0 00-.986.062 3.954 3.954 0 00-3.383 3.455h.046a2.88 2.88 0 012.347-1.122c1.72 0 2.933 1.237 2.933 3.141 0 1.781-1.213 3.426-3.23 3.426s-3.44-1.616-3.44-4.122a6.103 6.103 0 011.65-4.382 5.294 5.294 0 013.11-1.434c.317-.049.637-.074.957-.075v1.076l-.004-.025zm-.375 5.606c0-1.389-.793-2.225-2.005-2.225a2.167 2.167 0 00-1.885 1.195c-.102.178-.154.38-.149.585.029 1.6.763 2.783 2.141 2.783 1.143-.005 1.898-.948 1.898-2.338z" fill="#231F20"/></g><defs><clipPath id="clip0"><path fill="#fff" d="M0 0h165v240H0z"/></clipPath></defs></svg>